<svg width="219" height="61" viewBox="0 0 219 61" fill="none" xmlns="http://www.w3.org/2000/svg">
<path d="M1.99229 48.4272V51.6915H7.17226V53.3773H1.99229V57.4845H0V46.7568H7.83125V48.4272H1.99229Z" fill="#E3A127"/>
<path d="M12.446 49.2088C13.6516 49.2088 14.5711 49.5 15.2045 50.0824C15.8482 50.6545 16.17 51.5229 16.17 52.6877V57.4845H14.3616V56.4883C14.1266 56.8459 13.7895 57.1218 13.3502 57.3159C12.9211 57.4998 12.4 57.5918 11.787 57.5918C11.174 57.5918 10.6376 57.4896 10.1778 57.2853C9.71806 57.0707 9.36047 56.7795 9.10504 56.4117C8.85984 56.0337 8.73724 55.6097 8.73724 55.1397C8.73724 54.4041 9.00798 53.8166 9.54948 53.3773C10.1012 52.9278 10.9645 52.703 12.1395 52.703H14.2544V52.5804C14.2544 52.0082 14.0807 51.5689 13.7333 51.2624C13.3961 50.9559 12.8904 50.8026 12.2161 50.8026C11.7563 50.8026 11.3017 50.8742 10.8521 51.0172C10.4128 51.1602 10.0399 51.3595 9.73338 51.6149L8.98244 50.2203C9.41155 49.8933 9.9275 49.643 10.5303 49.4693C11.1331 49.2957 11.7717 49.2088 12.446 49.2088ZM12.1854 56.1972C12.6656 56.1972 13.0896 56.0899 13.4574 55.8753C13.8355 55.6506 14.1011 55.3338 14.2544 54.9252V53.975H12.2774C11.174 53.975 10.6223 54.3377 10.6223 55.0631C10.6223 55.4105 10.7602 55.6863 11.036 55.8907C11.3119 56.095 11.695 56.1972 12.1854 56.1972Z" fill="#E3A127"/>
<path d="M22.4581 57.5918C21.6101 57.5918 20.8489 57.413 20.1746 57.0554C19.5003 56.6978 18.9741 56.2023 18.5961 55.5688C18.2181 54.9252 18.0291 54.1998 18.0291 53.3926C18.0291 52.5855 18.2181 51.8652 18.5961 51.2318C18.9741 50.5983 19.4952 50.1028 20.1593 49.7452C20.8336 49.3876 21.5999 49.2088 22.4581 49.2088C23.2652 49.2088 23.9702 49.3723 24.573 49.6992C25.186 50.0262 25.6457 50.4961 25.9523 51.1092L24.481 51.9674C24.246 51.5894 23.9497 51.3084 23.5922 51.1245C23.2448 50.9304 22.8616 50.8333 22.4428 50.8333C21.7276 50.8333 21.135 51.0683 20.665 51.5383C20.195 51.998 19.96 52.6161 19.96 53.3926C19.96 54.1691 20.1899 54.7923 20.6497 55.2623C21.1197 55.7221 21.7174 55.952 22.4428 55.952C22.8616 55.952 23.2448 55.86 23.5922 55.6761C23.9497 55.482 24.246 55.1959 24.481 54.8179L25.9523 55.6761C25.6355 56.2891 25.1707 56.7642 24.5576 57.1014C23.9549 57.4283 23.255 57.5918 22.4581 57.5918Z" fill="#E3A127"/>
<path d="M35.1818 53.4386C35.1818 53.5714 35.1716 53.7604 35.1512 54.0056H28.7299C28.8422 54.6084 29.1334 55.0886 29.6034 55.4462C30.0836 55.7936 30.6762 55.9673 31.3811 55.9673C32.2802 55.9673 33.0209 55.671 33.6033 55.0784L34.6301 56.2585C34.2623 56.6978 33.7974 57.0298 33.2355 57.2546C32.6736 57.4794 32.0401 57.5918 31.3352 57.5918C30.4361 57.5918 29.6443 57.413 28.9597 57.0554C28.2752 56.6978 27.7439 56.2023 27.3659 55.5688C26.9981 54.9252 26.8142 54.1998 26.8142 53.3926C26.8142 52.5957 26.993 51.8805 27.3506 51.2471C27.7184 50.6034 28.2241 50.1028 28.8678 49.7452C29.5114 49.3876 30.2368 49.2088 31.044 49.2088C31.8409 49.2088 32.551 49.3876 33.1742 49.7452C33.8076 50.0926 34.2981 50.5881 34.6454 51.2318C35.003 51.8652 35.1818 52.6008 35.1818 53.4386ZM31.044 50.7413C30.431 50.7413 29.9099 50.9253 29.4808 51.2931C29.0619 51.6507 28.8065 52.1308 28.7145 52.7336H33.3581C33.2764 52.1411 33.0261 51.6609 32.6072 51.2931C32.1883 50.9253 31.6672 50.7413 31.044 50.7413Z" fill="#E3A127"/>
<path d="M41.5582 49.2088C42.3551 49.2088 43.0652 49.3825 43.6885 49.7299C44.3219 50.0773 44.8174 50.5677 45.175 51.2011C45.5326 51.8346 45.7114 52.5651 45.7114 53.3926C45.7114 54.2202 45.5326 54.9558 45.175 55.5995C44.8174 56.2329 44.3219 56.7233 43.6885 57.0707C43.0652 57.4181 42.3551 57.5918 41.5582 57.5918C40.9963 57.5918 40.4804 57.4947 40.0104 57.3006C39.5506 57.1065 39.1624 56.8153 38.8456 56.427V57.4845H37.0219V46.1131H38.9376V50.2969C39.2645 49.9393 39.6477 49.6686 40.087 49.4847C40.5365 49.3008 41.027 49.2088 41.5582 49.2088ZM41.3437 55.952C42.0486 55.952 42.6259 55.717 43.0754 55.247C43.5352 54.777 43.7651 54.1589 43.7651 53.3926C43.7651 52.6264 43.5352 52.0082 43.0754 51.5383C42.6259 51.0683 42.0486 50.8333 41.3437 50.8333C40.8839 50.8333 40.4701 50.9406 40.1023 51.1551C39.7345 51.3595 39.4433 51.6558 39.2288 52.044C39.0142 52.4322 38.907 52.8818 38.907 53.3926C38.907 53.9035 39.0142 54.353 39.2288 54.7413C39.4433 55.1295 39.7345 55.4309 40.1023 55.6455C40.4701 55.8498 40.8839 55.952 41.3437 55.952Z" fill="#E3A127"/>
<path d="M51.2062 57.5918C50.3787 57.5918 49.6329 57.413 48.9688 57.0554C48.3047 56.6978 47.7836 56.2023 47.4056 55.5688C47.0378 54.9252 46.8539 54.1998 46.8539 53.3926C46.8539 52.5855 47.0378 51.8652 47.4056 51.2318C47.7836 50.5983 48.3047 50.1028 48.9688 49.7452C49.6329 49.3876 50.3787 49.2088 51.2062 49.2088C52.044 49.2088 52.795 49.3876 53.4591 49.7452C54.1232 50.1028 54.6391 50.5983 55.0069 51.2318C55.385 51.8652 55.574 52.5855 55.574 53.3926C55.574 54.1998 55.385 54.9252 55.0069 55.5688C54.6391 56.2023 54.1232 56.6978 53.4591 57.0554C52.795 57.413 52.044 57.5918 51.2062 57.5918ZM51.2062 55.952C51.9112 55.952 52.4936 55.717 52.9533 55.247C53.4131 54.777 53.643 54.1589 53.643 53.3926C53.643 52.6264 53.4131 52.0082 52.9533 51.5383C52.4936 51.0683 51.9112 50.8333 51.2062 50.8333C50.5013 50.8333 49.9189 51.0683 49.4592 51.5383C49.0096 52.0082 48.7848 52.6264 48.7848 53.3926C48.7848 54.1589 49.0096 54.777 49.4592 55.247C49.9189 55.717 50.5013 55.952 51.2062 55.952Z" fill="#E3A127"/>
<path d="M61.0839 57.5918C60.2563 57.5918 59.5105 57.413 58.8464 57.0554C58.1823 56.6978 57.6612 56.2023 57.2832 55.5688C56.9154 54.9252 56.7315 54.1998 56.7315 53.3926C56.7315 52.5855 56.9154 51.8652 57.2832 51.2318C57.6612 50.5983 58.1823 50.1028 58.8464 49.7452C59.5105 49.3876 60.2563 49.2088 61.0839 49.2088C61.9217 49.2088 62.6726 49.3876 63.3367 49.7452C64.0008 50.1028 64.5168 50.5983 64.8846 51.2318C65.2626 51.8652 65.4516 52.5855 65.4516 53.3926C65.4516 54.1998 65.2626 54.9252 64.8846 55.5688C64.5168 56.2023 64.0008 56.6978 63.3367 57.0554C62.6726 57.413 61.9217 57.5918 61.0839 57.5918ZM61.0839 55.952C61.7889 55.952 62.3712 55.717 62.831 55.247C63.2908 54.777 63.5206 54.1589 63.5206 53.3926C63.5206 52.6264 63.2908 52.0082 62.831 51.5383C62.3712 51.0683 61.7889 50.8333 61.0839 50.8333C60.3789 50.8333 59.7966 51.0683 59.3368 51.5383C58.8873 52.0082 58.6625 52.6264 58.6625 53.3926C58.6625 54.1589 58.8873 54.777 59.3368 55.247C59.7966 55.717 60.3789 55.952 61.0839 55.952Z" fill="#E3A127"/>
<path d="M70.6244 53.975L69.1991 55.3236V57.4845H67.2835V46.1131H69.1991V52.9788L73.1684 49.3008H75.4672L72.0497 52.7336L75.789 57.4845H73.4596L70.6244 53.975Z" fill="#E3A127"/>
<path d="M91.523 49.423C92.514 49.423 93.2905 49.7142 93.8524 50.2965C94.4246 50.8789 94.7106 51.7167 94.7106 52.8099V57.4841H93.9444V52.8712C93.9444 51.9721 93.7247 51.2876 93.2854 50.8176C92.8461 50.3476 92.233 50.1126 91.4463 50.1126C90.5473 50.1126 89.8321 50.3936 89.3008 50.9555C88.7797 51.5174 88.5192 52.2735 88.5192 53.2237V57.4841H87.7529V52.8712C87.7529 51.9721 87.5333 51.2876 87.0939 50.8176C86.6546 50.3476 86.0416 50.1126 85.2549 50.1126C84.3558 50.1126 83.6406 50.3936 83.1094 50.9555C82.5883 51.5174 82.3278 52.2735 82.3278 53.2237V57.4841H81.5615V49.4843H82.2971V51.2007C82.5628 50.6388 82.9561 50.2046 83.4772 49.8981C84.0084 49.5813 84.6368 49.423 85.3622 49.423C86.0876 49.423 86.7006 49.5864 87.2012 49.9134C87.7121 50.2403 88.0748 50.7205 88.2893 51.354C88.555 50.7614 88.9687 50.2914 89.5307 49.944C90.1028 49.5967 90.7669 49.423 91.523 49.423Z" fill="white"/>
<path d="M100.572 49.423C101.563 49.423 102.324 49.6784 102.855 50.1892C103.387 50.6899 103.652 51.4306 103.652 52.4114V57.4841H102.917V56.0588C102.661 56.5288 102.288 56.8966 101.798 57.1623C101.307 57.4177 100.72 57.5454 100.035 57.5454C99.1466 57.5454 98.4416 57.336 97.9206 56.9171C97.4097 56.4982 97.1543 55.9465 97.1543 55.2619C97.1543 54.5978 97.3893 54.0614 97.8593 53.6528C98.3395 53.2339 99.1006 53.0244 100.143 53.0244H102.886V52.3808C102.886 51.6349 102.682 51.0679 102.273 50.6796C101.875 50.2914 101.287 50.0973 100.511 50.0973C99.9793 50.0973 99.4684 50.1892 98.978 50.3731C98.4978 50.557 98.0892 50.8023 97.752 51.1088L97.3689 50.557C97.7673 50.1995 98.2475 49.9236 98.8094 49.7295C99.3714 49.5251 99.9588 49.423 100.572 49.423ZM100.143 56.9171C100.807 56.9171 101.369 56.7638 101.829 56.4573C102.299 56.1508 102.651 55.7064 102.886 55.124V53.6221H100.158C99.3714 53.6221 98.7992 53.7652 98.4416 54.0512C98.0943 54.3373 97.9206 54.7306 97.9206 55.2313C97.9206 55.7523 98.1147 56.1661 98.5029 56.4726C98.8912 56.7689 99.4378 56.9171 100.143 56.9171Z" fill="white"/>
<path d="M107.545 51.2314C107.79 50.649 108.173 50.2046 108.694 49.8981C109.215 49.5813 109.849 49.423 110.595 49.423V50.1739L110.411 50.1586C109.522 50.1586 108.827 50.4396 108.327 51.0015C107.826 51.5532 107.576 52.3246 107.576 53.3156V57.4841H106.809V49.4843H107.545V51.2314Z" fill="white"/>
<path d="M115.557 53.2083L113.472 55.1087V57.4841H112.706V46.1127H113.472V54.1585L118.591 49.4843H119.572L116.124 52.7179L119.909 57.4841H118.959L115.557 53.2083Z" fill="white"/>
<path d="M128.145 53.6681H121.264C121.284 54.2913 121.443 54.8481 121.739 55.3386C122.035 55.8187 122.434 56.1917 122.934 56.4573C123.445 56.7229 124.017 56.8558 124.651 56.8558C125.172 56.8558 125.652 56.7638 126.091 56.5799C126.541 56.3858 126.914 56.1048 127.21 55.737L127.654 56.2427C127.307 56.6616 126.868 56.9835 126.336 57.2082C125.815 57.433 125.248 57.5454 124.635 57.5454C123.838 57.5454 123.128 57.3717 122.505 57.0243C121.882 56.677 121.392 56.1968 121.034 55.5838C120.687 54.9707 120.513 54.2709 120.513 53.4842C120.513 52.7077 120.676 52.013 121.003 51.3999C121.34 50.7767 121.8 50.2914 122.383 49.944C122.965 49.5967 123.619 49.423 124.344 49.423C125.07 49.423 125.718 49.5967 126.291 49.944C126.873 50.2812 127.328 50.7563 127.654 51.3693C127.992 51.9823 128.16 52.6771 128.16 53.4535L128.145 53.6681ZM124.344 50.0973C123.782 50.0973 123.277 50.225 122.827 50.4804C122.377 50.7256 122.015 51.0781 121.739 51.5379C121.473 51.9874 121.32 52.4983 121.279 53.0704H127.409C127.379 52.4983 127.225 51.9874 126.95 51.5379C126.674 51.0883 126.311 50.7358 125.861 50.4804C125.412 50.225 124.906 50.0973 124.344 50.0973Z" fill="white"/>
<path d="M134.5 56.9784C134.306 57.1623 134.061 57.3053 133.764 57.4075C133.478 57.4994 133.177 57.5454 132.86 57.5454C132.165 57.5454 131.629 57.3564 131.251 56.9784C130.873 56.5901 130.684 56.0537 130.684 55.3692V50.1433H129.213V49.4843H130.684V47.7372H131.45V49.4843H133.994V50.1433H131.45V55.2926C131.45 55.8136 131.573 56.2121 131.818 56.488C132.073 56.7536 132.446 56.8864 132.937 56.8864C133.437 56.8864 133.851 56.7383 134.178 56.442L134.5 56.9784Z" fill="white"/>
<path d="M136.637 49.4843H137.403V57.4841H136.637V49.4843ZM137.02 47.538C136.846 47.538 136.698 47.4818 136.576 47.3694C136.453 47.2468 136.392 47.0986 136.392 46.9249C136.392 46.7513 136.453 46.6031 136.576 46.4805C136.698 46.3579 136.846 46.2966 137.02 46.2966C137.194 46.2966 137.342 46.3579 137.464 46.4805C137.587 46.5929 137.648 46.7359 137.648 46.9096C137.648 47.0833 137.587 47.2315 137.464 47.3541C137.342 47.4767 137.194 47.538 137.02 47.538Z" fill="white"/>
<path d="M144.541 49.423C145.542 49.423 146.334 49.7142 146.916 50.2965C147.499 50.8789 147.79 51.7167 147.79 52.8099V57.4841H147.024V52.8712C147.024 51.9721 146.794 51.2876 146.334 50.8176C145.884 50.3476 145.251 50.1126 144.434 50.1126C143.494 50.1126 142.753 50.3936 142.211 50.9555C141.67 51.5174 141.399 52.2735 141.399 53.2237V57.4841H140.633V49.4843H141.368V51.216C141.644 50.6541 142.053 50.2148 142.595 49.8981C143.146 49.5813 143.795 49.423 144.541 49.423Z" fill="white"/>
<path d="M158.162 49.4843V56.6259C158.162 57.9541 157.841 58.9349 157.197 59.5683C156.553 60.2018 155.583 60.5185 154.285 60.5185C153.549 60.5185 152.855 60.4061 152.201 60.1814C151.547 59.9566 151.021 59.645 150.622 59.2465L151.036 58.6641C151.435 59.032 151.915 59.318 152.477 59.5224C153.039 59.7267 153.636 59.8289 154.27 59.8289C155.332 59.8289 156.119 59.5735 156.63 59.0626C157.141 58.562 157.396 57.7804 157.396 56.7178V55.3692C157.069 55.9516 156.615 56.4011 156.032 56.7178C155.45 57.0346 154.796 57.1929 154.071 57.1929C153.325 57.1929 152.645 57.0294 152.032 56.7025C151.429 56.3653 150.954 55.9005 150.607 55.3079C150.26 54.7153 150.086 54.0461 150.086 53.3003C150.086 52.5544 150.26 51.8852 150.607 51.2927C150.954 50.7001 151.429 50.2403 152.032 49.9134C152.645 49.5864 153.325 49.423 154.071 49.423C154.806 49.423 155.47 49.5864 156.063 49.9134C156.655 50.2403 157.11 50.7001 157.427 51.2927V49.4843H158.162ZM154.132 56.5033C154.755 56.5033 155.317 56.3705 155.818 56.1048C156.318 55.829 156.707 55.4509 156.982 54.9707C157.268 54.4803 157.411 53.9235 157.411 53.3003C157.411 52.6771 157.268 52.1253 156.982 51.6451C156.707 51.165 156.318 50.792 155.818 50.5264C155.317 50.2505 154.755 50.1126 154.132 50.1126C153.509 50.1126 152.947 50.2505 152.446 50.5264C151.956 50.792 151.567 51.165 151.281 51.6451C151.005 52.1253 150.868 52.6771 150.868 53.3003C150.868 53.9235 151.005 54.4803 151.281 54.9707C151.567 55.4509 151.956 55.829 152.446 56.1048C152.947 56.3705 153.509 56.5033 154.132 56.5033Z" fill="white"/>
<path d="M168.039 49.423C169.03 49.423 169.791 49.6784 170.323 50.1892C170.854 50.6899 171.12 51.4306 171.12 52.4114V57.4841H170.384V56.0588C170.129 56.5288 169.756 56.8966 169.265 57.1623C168.775 57.4177 168.187 57.5454 167.503 57.5454C166.614 57.5454 165.909 57.336 165.388 56.9171C164.877 56.4982 164.622 55.9465 164.622 55.2619C164.622 54.5978 164.857 54.0614 165.327 53.6528C165.807 53.2339 166.568 53.0244 167.61 53.0244H170.353V52.3808C170.353 51.6349 170.149 51.0679 169.74 50.6796C169.342 50.2914 168.754 50.0973 167.978 50.0973C167.447 50.0973 166.936 50.1892 166.445 50.3731C165.965 50.557 165.557 50.8023 165.219 51.1088L164.836 50.557C165.235 50.1995 165.715 49.9236 166.277 49.7295C166.839 49.5251 167.426 49.423 168.039 49.423ZM167.61 56.9171C168.274 56.9171 168.836 56.7638 169.296 56.4573C169.766 56.1508 170.118 55.7064 170.353 55.124V53.6221H167.625C166.839 53.6221 166.267 53.7652 165.909 54.0512C165.562 54.3373 165.388 54.7306 165.388 55.2313C165.388 55.7523 165.582 56.1661 165.97 56.4726C166.359 56.7689 166.905 56.9171 167.61 56.9171Z" fill="white"/>
<path d="M181.495 49.4843V56.6259C181.495 57.9541 181.173 58.9349 180.529 59.5683C179.885 60.2018 178.915 60.5185 177.617 60.5185C176.882 60.5185 176.187 60.4061 175.533 60.1814C174.879 59.9566 174.353 59.645 173.955 59.2465L174.368 58.6641C174.767 59.032 175.247 59.318 175.809 59.5224C176.371 59.7267 176.969 59.8289 177.602 59.8289C178.665 59.8289 179.451 59.5735 179.962 59.0626C180.473 58.562 180.728 57.7804 180.728 56.7178V55.3692C180.401 55.9516 179.947 56.4011 179.364 56.7178C178.782 57.0346 178.128 57.1929 177.403 57.1929C176.657 57.1929 175.978 57.0294 175.365 56.7025C174.762 56.3653 174.287 55.9005 173.939 55.3079C173.592 54.7153 173.418 54.0461 173.418 53.3003C173.418 52.5544 173.592 51.8852 173.939 51.2927C174.287 50.7001 174.762 50.2403 175.365 49.9134C175.978 49.5864 176.657 49.423 177.403 49.423C178.138 49.423 178.802 49.5864 179.395 49.9134C179.988 50.2403 180.442 50.7001 180.759 51.2927V49.4843H181.495ZM177.464 56.5033C178.087 56.5033 178.649 56.3705 179.15 56.1048C179.65 55.829 180.039 55.4509 180.315 54.9707C180.601 54.4803 180.744 53.9235 180.744 53.3003C180.744 52.6771 180.601 52.1253 180.315 51.6451C180.039 51.165 179.65 50.792 179.15 50.5264C178.649 50.2505 178.087 50.1126 177.464 50.1126C176.841 50.1126 176.279 50.2505 175.778 50.5264C175.288 50.792 174.9 51.165 174.614 51.6451C174.338 52.1253 174.2 52.6771 174.2 53.3003C174.2 53.9235 174.338 54.4803 174.614 54.9707C174.9 55.4509 175.288 55.829 175.778 56.1048C176.279 56.3705 176.841 56.5033 177.464 56.5033Z" fill="white"/>
<path d="M191.497 53.6681H184.616C184.636 54.2913 184.794 54.8481 185.091 55.3386C185.387 55.8187 185.785 56.1917 186.286 56.4573C186.797 56.7229 187.369 56.8558 188.002 56.8558C188.523 56.8558 189.004 56.7638 189.443 56.5799C189.893 56.3858 190.265 56.1048 190.562 55.737L191.006 56.2427C190.659 56.6616 190.219 56.9835 189.688 57.2082C189.167 57.433 188.6 57.5454 187.987 57.5454C187.19 57.5454 186.48 57.3717 185.857 57.0243C185.234 56.677 184.743 56.1968 184.386 55.5838C184.038 54.9707 183.865 54.2709 183.865 53.4842C183.865 52.7077 184.028 52.013 184.355 51.3999C184.692 50.7767 185.152 50.2914 185.734 49.944C186.317 49.5967 186.97 49.423 187.696 49.423C188.421 49.423 189.07 49.5967 189.642 49.944C190.225 50.2812 190.679 50.7563 191.006 51.3693C191.343 51.9823 191.512 52.6771 191.512 53.4535L191.497 53.6681ZM187.696 50.0973C187.134 50.0973 186.628 50.225 186.179 50.4804C185.729 50.7256 185.366 51.0781 185.091 51.5379C184.825 51.9874 184.672 52.4983 184.631 53.0704H190.761C190.73 52.4983 190.577 51.9874 190.301 51.5379C190.025 51.0883 189.663 50.7358 189.213 50.4804C188.764 50.225 188.258 50.0973 187.696 50.0973Z" fill="white"/>
<path d="M197.79 49.423C198.792 49.423 199.583 49.7142 200.166 50.2965C200.748 50.8789 201.039 51.7167 201.039 52.8099V57.4841H200.273V52.8712C200.273 51.9721 200.043 51.2876 199.583 50.8176C199.134 50.3476 198.5 50.1126 197.683 50.1126C196.743 50.1126 196.002 50.3936 195.461 50.9555C194.919 51.5174 194.649 52.2735 194.649 53.2237V57.4841H193.882V49.4843H194.618V51.216C194.894 50.6541 195.303 50.2148 195.844 49.8981C196.396 49.5813 197.045 49.423 197.79 49.423Z" fill="white"/>
<path d="M207.381 57.5454C206.605 57.5454 205.91 57.3717 205.297 57.0243C204.684 56.677 204.204 56.1968 203.857 55.5838C203.509 54.9605 203.336 54.2607 203.336 53.4842C203.336 52.6975 203.509 51.9976 203.857 51.3846C204.204 50.7614 204.684 50.2812 205.297 49.944C205.91 49.5967 206.605 49.423 207.381 49.423C208.025 49.423 208.607 49.5507 209.128 49.8061C209.66 50.0513 210.089 50.414 210.416 50.8942L209.849 51.308C209.563 50.9095 209.205 50.6132 208.776 50.4191C208.357 50.2148 207.892 50.1126 207.381 50.1126C206.758 50.1126 206.196 50.2556 205.696 50.5417C205.205 50.8176 204.817 51.2109 204.531 51.7218C204.255 52.2326 204.117 52.8201 204.117 53.4842C204.117 54.1483 204.255 54.7358 204.531 55.2466C204.817 55.7574 205.205 56.1559 205.696 56.442C206.196 56.7178 206.758 56.8558 207.381 56.8558C207.892 56.8558 208.357 56.7587 208.776 56.5646C209.205 56.3602 209.563 56.0588 209.849 55.6604L210.416 56.0742C210.089 56.5544 209.66 56.9222 209.128 57.1776C208.607 57.4228 208.025 57.5454 207.381 57.5454Z" fill="white"/>
<path d="M218.996 49.4843L214.889 58.5722C214.583 59.2772 214.225 59.7778 213.816 60.0741C213.418 60.3704 212.943 60.5185 212.391 60.5185C212.023 60.5185 211.676 60.4572 211.349 60.3346C211.032 60.212 210.762 60.0332 210.537 59.7982L210.92 59.2159C211.329 59.6348 211.824 59.8442 212.407 59.8442C212.795 59.8442 213.127 59.7369 213.403 59.5224C213.679 59.3078 213.934 58.94 214.169 58.4189L214.598 57.4534L210.997 49.4843H211.809L215.012 56.6412L218.215 49.4843H218.996Z" fill="white"/>
<line x1="4.37114e-08" y1="37.5797" x2="218.996" y2="37.5797" stroke="white"/>
<path d="M40.7837 7.34547V13.8537H51.1477V17.2148H40.7837V25.4036H36.7975V4.01495H52.4662V7.34547H40.7837Z" fill="white"/>
<path d="M59.3025 11.4704C60.4064 9.75933 62.3483 8.90378 65.1284 8.90378V12.5399C64.8013 12.4787 64.5049 12.4482 64.2392 12.4482C62.7469 12.4482 61.5818 12.8861 60.7436 13.7621C59.9055 14.6176 59.4865 15.8602 59.4865 17.4898V25.4036H55.6536V9.08711H59.3025V11.4704Z" fill="white"/>
<path d="M84.3822 9.08711V25.4036H80.7333V23.3258C80.1201 24.0592 79.3535 24.6295 78.4336 25.0369C77.5137 25.424 76.5223 25.6175 75.4593 25.6175C73.2721 25.6175 71.5447 25.0166 70.2773 23.8147C69.0304 22.5925 68.4069 20.7898 68.4069 18.4065V9.08711H72.2398V17.887C72.2398 19.3537 72.5668 20.4537 73.221 21.187C73.8955 21.8999 74.8461 22.2564 76.0726 22.2564C77.4422 22.2564 78.5256 21.8388 79.3228 21.0036C80.1405 20.1481 80.5493 18.9259 80.5493 17.337V9.08711H84.3822Z" fill="white"/>
<path d="M96.085 18.4065L93.2334 21.0953V25.4036H89.4006V2.73163H93.2334V16.4204L101.175 9.08711H105.774L98.9366 15.9315L106.418 25.4036H101.758L96.085 18.4065Z" fill="white"/>
<path d="M118.737 24.5175C118.287 24.8842 117.735 25.1592 117.081 25.3425C116.447 25.5258 115.773 25.6175 115.057 25.6175C113.258 25.6175 111.868 25.149 110.887 24.2119C109.906 23.2749 109.415 21.9101 109.415 20.1175V12.2649H106.717V9.20933H109.415V5.4816H113.248V9.20933H117.633V12.2649H113.248V20.0259C113.248 20.8203 113.442 21.4314 113.831 21.8592C114.219 22.2666 114.781 22.4703 115.517 22.4703C116.376 22.4703 117.091 22.2462 117.664 21.7981L118.737 24.5175Z" fill="white"/>
<path d="M122.442 25.5258C122.094 25.5258 121.788 25.4036 121.522 25.1592C121.277 24.8943 121.154 24.5786 121.154 24.2119C121.154 23.8453 121.277 23.5397 121.522 23.2953C121.788 23.0508 122.094 22.9286 122.442 22.9286C122.789 22.9286 123.086 23.0508 123.331 23.2953C123.597 23.5397 123.73 23.8453 123.73 24.2119C123.73 24.5786 123.597 24.8943 123.331 25.1592C123.086 25.4036 122.789 25.5258 122.442 25.5258Z" fill="white"/>
<path d="M143.987 14.8009H145.49V22.8064C144.549 23.7027 143.405 24.3851 142.056 24.8536C140.727 25.3221 139.316 25.5564 137.824 25.5564C135.698 25.5564 133.777 25.0879 132.06 24.1508C130.363 23.2138 129.024 21.9203 128.043 20.2703C127.082 18.6203 126.602 16.7667 126.602 14.7093C126.602 12.6519 127.082 10.7982 128.043 9.14822C129.024 7.49824 130.363 6.20474 132.06 5.26771C133.777 4.33068 135.708 3.86217 137.855 3.86217C139.429 3.86217 140.87 4.1168 142.178 4.62605C143.507 5.11494 144.641 5.83808 145.582 6.79547L144.601 7.83435C143.701 6.93806 142.689 6.2964 141.565 5.90937C140.461 5.50197 139.235 5.29827 137.885 5.29827C136.046 5.29827 134.38 5.70567 132.887 6.52047C131.416 7.33528 130.261 8.46582 129.423 9.9121C128.584 11.338 128.165 12.9371 128.165 14.7093C128.165 16.4611 128.584 18.0602 129.423 19.5064C130.281 20.9324 131.446 22.0629 132.918 22.8981C134.39 23.7129 136.046 24.1203 137.885 24.1203C140.338 24.1203 142.372 23.4684 143.987 22.1647V14.8009Z" fill="white"/>
<path d="M153.353 12.9371C153.843 11.776 154.61 10.8899 155.653 10.2788C156.695 9.64729 157.962 9.33155 159.455 9.33155V10.8288L159.087 10.7982C157.308 10.7982 155.918 11.3584 154.917 12.4787C153.915 13.5787 153.414 15.1167 153.414 17.0926V25.4036H151.881V9.45378H153.353V12.9371Z" fill="white"/>
<path d="M169.784 25.5258C168.272 25.5258 166.902 25.1795 165.676 24.4869C164.47 23.7944 163.519 22.837 162.824 21.6147C162.129 20.3722 161.781 18.9768 161.781 17.4287C161.781 15.8806 162.129 14.4954 162.824 13.2732C163.519 12.0306 164.47 11.063 165.676 10.3704C166.902 9.67785 168.272 9.33155 169.784 9.33155C171.297 9.33155 172.657 9.67785 173.863 10.3704C175.089 11.063 176.05 12.0306 176.745 13.2732C177.44 14.4954 177.787 15.8806 177.787 17.4287C177.787 18.9768 177.44 20.3722 176.745 21.6147C176.05 22.837 175.089 23.7944 173.863 24.4869C172.657 25.1795 171.297 25.5258 169.784 25.5258ZM169.784 24.1508C171.011 24.1508 172.105 23.8657 173.065 23.2953C174.047 22.7249 174.813 21.9305 175.365 20.912C175.937 19.8935 176.224 18.7324 176.224 17.4287C176.224 16.125 175.937 14.9639 175.365 13.9454C174.813 12.9269 174.047 12.1324 173.065 11.5621C172.105 10.9917 171.011 10.7065 169.784 10.7065C168.558 10.7065 167.454 10.9917 166.473 11.5621C165.512 12.1324 164.746 12.9269 164.173 13.9454C163.621 14.9639 163.345 16.125 163.345 17.4287C163.345 18.7324 163.621 19.8935 164.173 20.912C164.746 21.9305 165.512 22.7249 166.473 23.2953C167.454 23.8657 168.558 24.1508 169.784 24.1508Z" fill="white"/>
<path d="M196.557 9.45378V25.4036H195.085V21.9814C194.553 23.1018 193.766 23.9777 192.724 24.6092C191.681 25.2203 190.455 25.5258 189.044 25.5258C186.959 25.5258 185.324 24.9453 184.138 23.7842C182.953 22.6231 182.36 20.9527 182.36 18.7731V9.45378H183.893V18.6509C183.893 20.4435 184.353 21.8083 185.273 22.7453C186.193 23.6823 187.491 24.1508 189.167 24.1508C190.966 24.1508 192.386 23.5907 193.429 22.4703C194.492 21.3499 195.023 19.8425 195.023 17.9481V9.45378H196.557Z" fill="white"/>
<path d="M211.089 9.33155C212.581 9.33155 213.93 9.67785 215.136 10.3704C216.343 11.063 217.283 12.0204 217.957 13.2426C218.652 14.4648 219 15.8602 219 17.4287C219 18.9972 218.652 20.4027 217.957 21.6453C217.283 22.8675 216.343 23.8249 215.136 24.5175C213.93 25.1897 212.581 25.5258 211.089 25.5258C209.679 25.5258 208.401 25.1999 207.256 24.548C206.111 23.8758 205.222 22.949 204.589 21.7675V31.3313H203.055V9.45378H204.527V13.2121C205.161 11.9899 206.05 11.0426 207.195 10.3704C208.36 9.67785 209.658 9.33155 211.089 9.33155ZM210.997 24.1508C212.224 24.1508 213.327 23.8657 214.309 23.2953C215.29 22.7249 216.056 21.9305 216.608 20.912C217.181 19.8935 217.467 18.7324 217.467 17.4287C217.467 16.125 217.181 14.9639 216.608 13.9454C216.056 12.9269 215.29 12.1324 214.309 11.5621C213.327 10.9917 212.224 10.7065 210.997 10.7065C209.77 10.7065 208.667 10.9917 207.685 11.5621C206.725 12.1324 205.958 12.9269 205.386 13.9454C204.834 14.9639 204.558 16.125 204.558 17.4287C204.558 18.7324 204.834 19.8935 205.386 20.912C205.958 21.9305 206.725 22.7249 207.685 23.2953C208.667 23.8657 209.77 24.1508 210.997 24.1508Z" fill="white"/>
<path d="M9.83135 6.96889C7.95873 6.96889 6.41382 5.39373 6.41382 3.48444C6.41382 1.57516 7.95873 0 9.83135 0C10.3463 0 10.8613 0.0954645 11.2826 0.334125C11.5167 0.477321 11.7508 0.66825 11.9849 0.811446C13.9043 1.95702 16.1515 2.62527 18.539 2.62527C20.5053 2.62527 22.3311 2.19568 23.9696 1.38423C24.1569 1.28877 24.2974 1.24104 24.4846 1.14557C24.7187 1.05011 24.9996 1.00238 25.3273 1.00238C26.6849 1.00238 27.7617 2.10021 27.7617 3.48444C27.7617 4.86867 26.6849 5.96651 25.3273 5.96651C25.0932 5.96651 24.906 5.91878 24.7187 5.87105C24.4378 5.72785 24.1569 5.58466 23.8292 5.44146C22.2375 4.72548 20.4585 4.29589 18.5859 4.29589C16.2451 4.29589 14.0916 4.91641 12.1721 6.01425C11.7976 6.20517 11.4699 6.44383 11.1422 6.68249C10.7208 6.87342 10.2995 6.96889 9.83135 6.96889Z" fill="#E3A127"/>
<path d="M28.7447 19.2833C28.7447 21.1926 27.1998 22.7678 25.3272 22.7678C23.4546 22.7678 21.9097 21.1926 21.9097 19.2833C21.9097 18.7583 22.0033 18.2332 22.2374 17.8037C22.3778 17.565 22.5651 17.3263 22.7055 17.0877C23.8291 15.1307 24.4845 12.8395 24.4845 10.4052C24.4845 8.40043 24.0632 6.53888 23.2673 4.86825C23.1737 4.67733 23.1269 4.53413 23.0332 4.3432C22.9396 4.10454 22.8928 3.81815 22.8928 3.48402C22.8928 2.09979 23.9696 1.00195 25.3272 1.00195C26.6849 1.00195 27.7616 2.09979 27.7616 3.48402C27.7616 3.72268 27.7148 3.91361 27.668 4.10454C27.5275 4.39093 27.3871 4.67732 27.2466 5.01145C26.5444 6.63434 26.1231 8.44816 26.1231 10.3574C26.1231 12.7441 26.7317 14.9397 27.8084 16.8967C27.9957 17.2786 28.2298 17.6127 28.4638 17.9469C28.6511 18.3764 28.7447 18.806 28.7447 19.2833Z" fill="#E3A127"/>
<path d="M17.5108 13.2691C18.2599 12.219 19.0557 11.2644 19.992 10.3097C21.8178 8.44816 23.8777 6.96846 26.0312 5.87063C26.2653 5.77516 26.4526 5.63197 26.6867 5.5365C26.8271 5.44104 26.9207 5.34557 27.0612 5.25011C27.9975 4.29547 27.9975 2.72031 27.0612 1.71793C26.1249 0.763293 24.58 0.763293 23.5968 1.71793C23.5032 1.8134 23.4096 1.95659 23.3159 2.05206C23.2223 2.29072 23.0819 2.52938 22.9882 2.76804C21.9115 5.01145 20.4602 7.06393 18.6344 8.92548C17.7449 9.83239 16.7618 10.6916 15.7318 11.4076C14.4678 10.8348 12.9697 11.0734 11.9398 12.1235C11.4248 12.6486 11.0971 13.3168 11.0034 14.0328C10.863 15.0829 11.1439 16.2285 11.9398 17.0399C12.7356 17.8514 13.8592 18.1855 14.8891 17.9946C15.5914 17.8991 16.2468 17.565 16.7618 17.0399C17.7917 16.0853 18.0258 14.5579 17.5108 13.2691ZM26.0312 1.90886C25.9844 1.95659 25.8908 1.95659 25.844 2.00433C25.8908 1.95659 25.9844 1.95659 26.0312 1.90886Z" fill="#E3A127"/>
<path d="M18.8679 22.4336C20.7405 22.4336 22.2854 24.0088 22.2854 25.918C22.2854 27.8273 20.7405 29.4025 18.8679 29.4025C18.3529 29.4025 17.8379 29.307 17.4166 29.0684C17.1825 28.9252 16.9484 28.7342 16.7143 28.591C14.7949 27.4455 12.5478 26.7772 10.1602 26.7772C8.19391 26.7772 6.3681 27.2068 4.72956 28.0183C4.5423 28.1137 4.40185 28.1614 4.21459 28.2569C3.98051 28.3524 3.69962 28.4001 3.37191 28.4001C2.01426 28.4001 0.9375 27.3023 0.9375 25.918C0.9375 24.5338 2.01426 23.436 3.37191 23.436C3.60599 23.436 3.79325 23.4837 3.98051 23.5314C4.2614 23.6746 4.5423 23.8178 4.87001 23.961C6.46173 24.677 8.24072 25.1066 10.1133 25.1066C12.4541 25.1066 14.6076 24.4861 16.5271 23.3882C16.9016 23.1973 17.2293 22.9586 17.557 22.72C17.9784 22.4813 18.4465 22.4336 18.8679 22.4336Z" fill="#E3A127"/>
<path d="M0 10.0714C0 8.16208 1.54491 6.58691 3.41753 6.58691C5.29016 6.58691 6.83507 8.16208 6.83507 10.0714C6.83507 10.5964 6.74144 11.1215 6.50736 11.5511C6.36691 11.7897 6.17965 12.0284 6.03921 12.267C4.91563 14.2241 4.26021 16.5152 4.26021 18.9495C4.26021 20.9543 4.68155 22.8158 5.47742 24.4865C5.57105 24.6774 5.61787 24.8206 5.7115 25.0115C5.80513 25.2502 5.85194 25.5366 5.85194 25.8707C5.85194 27.2549 4.77519 28.3528 3.41753 28.3528C2.05988 28.3528 0.983126 27.2549 0.983126 25.8707C0.983126 25.632 1.02994 25.4411 1.07676 25.2502C1.2172 24.9638 1.35765 24.6774 1.4981 24.3433C2.20033 22.6726 2.62167 20.8588 2.62167 18.9495C2.62167 16.5629 2.01307 14.3672 0.936311 12.4102C0.749049 12.0284 0.514971 11.6942 0.280893 11.3601C0.0936311 10.9783 0 10.5487 0 10.0714Z" fill="#E3A127"/>
<path d="M11.237 16.0855C10.4879 17.1356 9.69207 18.0902 8.75576 19.0448C6.92995 20.9064 4.87007 22.3861 2.71655 23.4839C2.48247 23.5794 2.29521 23.7226 2.06113 23.8181C1.92069 23.9135 1.82705 24.009 1.68661 24.1045C0.750297 25.0591 0.750297 26.6343 1.68661 27.6366C2.62292 28.5913 4.16783 28.5913 5.15096 27.6366C5.24459 27.5412 5.33822 27.398 5.43185 27.3025C5.52548 27.0638 5.66593 26.8252 5.75956 26.5865C6.83632 24.3431 8.2876 22.2906 10.1134 20.4291C11.0029 19.5222 11.986 18.663 13.016 17.947C14.28 18.5198 15.7781 18.2811 16.808 17.231C17.323 16.706 17.6507 16.0377 17.7443 15.3217C17.8848 14.2716 17.6039 13.1261 16.808 12.3146C16.0122 11.5032 14.8886 11.1691 13.8587 11.36C13.1564 11.4554 12.501 11.7896 11.986 12.3146C10.9093 13.2693 10.6752 14.7967 11.237 16.0855ZM2.66973 27.4457C2.71655 27.398 2.81018 27.398 2.857 27.3502C2.81018 27.398 2.76337 27.4457 2.66973 27.4457Z" fill="#E3A127"/>
</svg>
