<svg width="157" height="23" viewBox="0 0 157 23" fill="none" xmlns="http://www.w3.org/2000/svg">
<path d="M29.235 5.53612V10.2011H36.6637V12.6103H29.235V18.4799H26.3778V3.14886H37.6088V5.53612H29.235Z" fill="#333333"/>
<path d="M42.509 8.49282C43.3002 7.26633 44.6922 6.65309 46.6849 6.65309V9.25937C46.4504 9.21556 46.238 9.19366 46.0475 9.19366C44.9779 9.19366 44.1427 9.50758 43.542 10.1354C42.9412 10.7487 42.6408 11.6393 42.6408 12.8074V18.4799H39.8935V6.7845H42.509V8.49282Z" fill="#333333"/>
<path d="M60.4856 6.7845V18.4799H57.8702V16.9906C57.4306 17.5162 56.8812 17.925 56.2218 18.2171C55.5625 18.4945 54.8518 18.6332 54.0899 18.6332C52.5221 18.6332 51.284 18.2025 50.3755 17.341C49.4818 16.4649 49.0349 15.1728 49.0349 13.4644V6.7845H51.7822V13.0921C51.7822 14.1434 52.0166 14.9318 52.4855 15.4575C52.969 15.9685 53.6503 16.224 54.5295 16.224C55.5112 16.224 56.2878 15.9247 56.8592 15.3261C57.4453 14.7128 57.7383 13.8368 57.7383 12.6979V6.7845H60.4856Z" fill="#333333"/>
<path d="M68.874 13.4644L66.83 15.3918V18.4799H64.0827V2.229H66.83V12.0408L72.5225 6.7845H75.8192L70.918 11.6904L76.2808 18.4799H72.94L68.874 13.4644Z" fill="#333333"/>
<path d="M85.1105 17.8447C84.7881 18.1075 84.3925 18.3047 83.9236 18.4361C83.4694 18.5675 82.9859 18.6332 82.473 18.6332C81.1836 18.6332 80.1873 18.2974 79.484 17.6257C78.7807 16.9541 78.429 15.9758 78.429 14.6909V9.06225H76.4949V6.87211H78.429V4.20013H81.1763V6.87211H84.3192V9.06225H81.1763V14.6252C81.1763 15.1947 81.3155 15.6327 81.5939 15.9393C81.8723 16.2313 82.2752 16.3773 82.8027 16.3773C83.4181 16.3773 83.9309 16.2167 84.3412 15.8955L85.1105 17.8447Z" fill="#333333"/>
<path d="M87.7661 18.5675C87.517 18.5675 87.2972 18.4799 87.1067 18.3047C86.9309 18.1148 86.843 17.8885 86.843 17.6257C86.843 17.3629 86.9309 17.1439 87.1067 16.9687C87.2972 16.7935 87.517 16.7059 87.7661 16.7059C88.0152 16.7059 88.2276 16.7935 88.4034 16.9687C88.5939 17.1439 88.6892 17.3629 88.6892 17.6257C88.6892 17.8885 88.5939 18.1148 88.4034 18.3047C88.2276 18.4799 88.0152 18.5675 87.7661 18.5675Z" fill="#333333"/>
<path d="M103.21 10.8801H104.286V16.6182C103.612 17.2607 102.792 17.7498 101.825 18.0856C100.873 18.4215 99.8615 18.5894 98.7919 18.5894C97.268 18.5894 95.8907 18.2536 94.6599 17.5819C93.4438 16.9103 92.4841 15.9831 91.7807 14.8004C91.0921 13.6178 90.7478 12.2891 90.7478 10.8144C90.7478 9.33967 91.0921 8.01098 91.7807 6.82831C92.4841 5.64563 93.4438 4.71847 94.6599 4.04682C95.8907 3.37518 97.2754 3.03936 98.8139 3.03936C99.9421 3.03936 100.975 3.22187 101.913 3.58689C102.865 3.93732 103.678 4.45565 104.352 5.1419L103.649 5.88654C103.004 5.2441 102.279 4.78417 101.473 4.50675C100.682 4.21473 99.8029 4.06872 98.8358 4.06872C97.5171 4.06872 96.323 4.36074 95.2533 4.94478C94.1984 5.52882 93.3705 6.33917 92.7698 7.37584C92.169 8.39791 91.8687 9.54408 91.8687 10.8144C91.8687 12.07 92.169 13.2162 92.7698 14.2529C93.3852 15.275 94.2204 16.0853 95.2753 16.684C96.3303 17.268 97.5171 17.56 98.8358 17.56C100.594 17.56 102.052 17.0928 103.21 16.1583V10.8801Z" fill="#333333"/>
<path d="M109.923 9.54408C110.274 8.71183 110.824 8.07669 111.571 7.63866C112.318 7.18603 113.227 6.95971 114.296 6.95971V8.03288L114.033 8.01098C112.758 8.01098 111.761 8.41251 111.043 9.21556C110.326 10.004 109.967 11.1064 109.967 12.5227V18.4799H108.868V7.04732H109.923V9.54408Z" fill="#333333"/>
<path d="M121.7 18.5675C120.616 18.5675 119.634 18.3193 118.755 17.8228C117.891 17.3264 117.21 16.6401 116.711 15.7641C116.213 14.8734 115.964 13.8733 115.964 12.7636C115.964 11.6539 116.213 10.6611 116.711 9.785C117.21 8.89434 117.891 8.2008 118.755 7.70436C119.634 7.20793 120.616 6.95971 121.7 6.95971C122.785 6.95971 123.759 7.20793 124.624 7.70436C125.503 8.2008 126.191 8.89434 126.69 9.785C127.188 10.6611 127.437 11.6539 127.437 12.7636C127.437 13.8733 127.188 14.8734 126.69 15.7641C126.191 16.6401 125.503 17.3264 124.624 17.8228C123.759 18.3193 122.785 18.5675 121.7 18.5675ZM121.7 17.5819C122.58 17.5819 123.364 17.3775 124.052 16.9687C124.755 16.5598 125.305 15.9904 125.701 15.2604C126.111 14.5303 126.316 13.6981 126.316 12.7636C126.316 11.8291 126.111 10.9969 125.701 10.2668C125.305 9.53678 124.755 8.96735 124.052 8.55852C123.364 8.14969 122.58 7.94528 121.7 7.94528C120.821 7.94528 120.03 8.14969 119.327 8.55852C118.638 8.96735 118.089 9.53678 117.678 10.2668C117.283 10.9969 117.085 11.8291 117.085 12.7636C117.085 13.6981 117.283 14.5303 117.678 15.2604C118.089 15.9904 118.638 16.5598 119.327 16.9687C120.03 17.3775 120.821 17.5819 121.7 17.5819Z" fill="#333333"/>
<path d="M140.89 7.04732V18.4799H139.835V16.0269C139.454 16.83 138.89 17.4578 138.143 17.9104C137.396 18.3485 136.517 18.5675 135.506 18.5675C134.011 18.5675 132.839 18.1513 131.989 17.3191C131.139 16.4868 130.714 15.2896 130.714 13.7273V7.04732H131.813V13.6397C131.813 14.9245 132.143 15.9028 132.802 16.5744C133.462 17.2461 134.392 17.5819 135.593 17.5819C136.883 17.5819 137.901 17.1804 138.648 16.3773C139.41 15.5743 139.791 14.4938 139.791 13.1359V7.04732H140.89Z" fill="#333333"/>
<path d="M151.307 6.95971C152.376 6.95971 153.344 7.20793 154.208 7.70436C155.072 8.2008 155.746 8.88704 156.23 9.7631C156.728 10.6392 156.977 11.6393 156.977 12.7636C156.977 13.8879 156.728 14.8953 156.23 15.786C155.746 16.6621 155.072 17.3483 154.208 17.8447C153.344 18.3266 152.376 18.5675 151.307 18.5675C150.296 18.5675 149.38 18.3339 148.56 17.8666C147.739 17.3848 147.102 16.7205 146.647 15.8736V22.7287H145.548V7.04732H146.603V9.7412C147.058 8.86514 147.695 8.18619 148.516 7.70436C149.351 7.20793 150.281 6.95971 151.307 6.95971ZM151.241 17.5819C152.12 17.5819 152.911 17.3775 153.615 16.9687C154.318 16.5598 154.867 15.9904 155.263 15.2604C155.673 14.5303 155.878 13.6981 155.878 12.7636C155.878 11.8291 155.673 10.9969 155.263 10.2668C154.867 9.53678 154.318 8.96735 153.615 8.55852C152.911 8.14969 152.12 7.94528 151.241 7.94528C150.362 7.94528 149.571 8.14969 148.867 8.55852C148.179 8.96735 147.629 9.53678 147.219 10.2668C146.823 10.9969 146.625 11.8291 146.625 12.7636C146.625 13.6981 146.823 14.5303 147.219 15.2604C147.629 15.9904 148.179 16.5598 148.867 16.9687C149.571 17.3775 150.362 17.5819 151.241 17.5819Z" fill="#333333"/>
<path d="M7.047 5.26666C5.70474 5.26666 4.59737 4.13761 4.59737 2.76907C4.59737 1.40053 5.70474 0.271484 7.047 0.271484C7.41613 0.271484 7.78525 0.339912 8.08726 0.510979C8.25504 0.61362 8.42282 0.750474 8.5906 0.853115C9.96642 1.67424 11.5771 2.15323 13.2885 2.15323C14.6979 2.15323 16.0066 1.84531 17.1811 1.26368C17.3153 1.19525 17.416 1.16104 17.5502 1.09261C17.718 1.02418 17.9193 0.989969 18.1542 0.989969C19.1274 0.989969 19.8992 1.77688 19.8992 2.76907C19.8992 3.76126 19.1274 4.54818 18.1542 4.54818C17.9864 4.54818 17.8522 4.51396 17.718 4.47975C17.5166 4.37711 17.3153 4.27447 17.0804 4.17183C15.9395 3.65862 14.6643 3.3507 13.3221 3.3507C11.6443 3.3507 10.1006 3.79548 8.72483 4.58239C8.45638 4.71924 8.22148 4.89031 7.98659 5.06138C7.68458 5.19823 7.38257 5.26666 7.047 5.26666Z" fill="#E3A127"/>
<path d="M20.6038 14.0937C20.6038 15.4623 19.4965 16.5913 18.1542 16.5913C16.812 16.5913 15.7046 15.4623 15.7046 14.0937C15.7046 13.7174 15.7717 13.341 15.9395 13.0331C16.0401 12.8621 16.1744 12.691 16.275 12.5199C17.0804 11.1172 17.5502 9.47492 17.5502 7.73003C17.5502 6.29306 17.2482 4.95873 16.6777 3.76126C16.6106 3.6244 16.5771 3.52176 16.5099 3.38491C16.4428 3.21384 16.4093 3.00856 16.4093 2.76906C16.4093 1.77687 17.1811 0.989969 18.1542 0.989969C19.1274 0.989969 19.8992 1.77688 19.8992 2.76907C19.8992 2.94014 19.8656 3.07699 19.832 3.21384C19.7314 3.41912 19.6307 3.6244 19.53 3.8639C19.0267 5.02716 18.7247 6.32727 18.7247 7.69581C18.7247 9.40649 19.1609 10.9803 19.9327 12.3831C20.0669 12.6568 20.2347 12.8963 20.4025 13.1358C20.5367 13.4437 20.6038 13.7516 20.6038 14.0937Z" fill="#E3A127"/>
<path d="M12.5503 9.78284C13.0872 9.03014 13.6577 8.34587 14.3288 7.6616C15.6375 6.32727 17.114 5.26665 18.6576 4.47974C18.8254 4.41131 18.9596 4.30867 19.1274 4.24025C19.2281 4.17182 19.2952 4.10339 19.3958 4.03496C20.067 3.35069 20.067 2.22165 19.3958 1.50316C18.7247 0.818893 17.6173 0.818893 16.9126 1.50316C16.8455 1.57159 16.7784 1.67423 16.7113 1.74266C16.6442 1.91373 16.5435 2.08479 16.4764 2.25586C15.7046 3.8639 14.6644 5.33508 13.3557 6.66941C12.7181 7.31946 12.0134 7.93531 11.2751 8.44851C10.3691 8.03795 9.29531 8.20901 8.55707 8.96171C8.18794 9.33806 7.95305 9.81705 7.88594 10.3303C7.78527 11.083 7.98661 11.9041 8.55707 12.4857C9.12753 13.0673 9.93289 13.3068 10.6711 13.17C11.1745 13.1016 11.6443 12.8621 12.0134 12.4857C12.7516 11.8014 12.9194 10.7066 12.5503 9.78284Z" fill="#E3A127"/>
<path d="M13.5234 16.3519C14.8657 16.3519 15.973 17.4809 15.973 18.8495C15.973 20.218 14.8657 21.3471 13.5234 21.3471C13.1543 21.3471 12.7852 21.2786 12.4832 21.1076C12.3154 21.0049 12.1476 20.8681 11.9798 20.7654C10.604 19.9443 8.99327 19.4653 7.28189 19.4653C5.87251 19.4653 4.56381 19.7732 3.38933 20.3549C3.2551 20.4233 3.15443 20.4575 3.02021 20.5259C2.85242 20.5944 2.65108 20.6286 2.41619 20.6286C1.44305 20.6286 0.671248 19.8417 0.671248 18.8495C0.671248 17.8573 1.44305 17.0704 2.41619 17.0704C2.58397 17.0704 2.7182 17.1046 2.85242 17.1388C3.05376 17.2414 3.2551 17.3441 3.49 17.4467C4.63092 17.9599 5.90607 18.2678 7.24833 18.2678C8.92616 18.2678 10.4698 17.8231 11.8456 17.0362C12.114 16.8993 12.3489 16.7282 12.5838 16.5572C12.8858 16.3861 13.2214 16.3519 13.5234 16.3519Z" fill="#E3A127"/>
<path d="M0.00012207 7.4905C0.00012207 6.12196 1.10749 4.99291 2.44975 4.99291C3.79201 4.99291 4.89938 6.12196 4.89938 7.4905C4.89938 7.86685 4.83227 8.2432 4.66448 8.55112C4.56381 8.72219 4.42959 8.89325 4.32892 9.06432C3.52356 10.4671 3.05377 12.1093 3.05377 13.8542C3.05377 15.2912 3.35578 16.6255 3.92624 17.823C3.99335 17.9598 4.02691 18.0625 4.09402 18.1993C4.16114 18.3704 4.19469 18.5757 4.19469 18.8152C4.19469 19.8074 3.42289 20.5943 2.44975 20.5943C1.47661 20.5943 0.70481 19.8074 0.70481 18.8152C0.70481 18.6441 0.738366 18.5073 0.771923 18.3704C0.872593 18.1651 0.973262 17.9598 1.07393 17.7203C1.57728 16.5229 1.87929 15.2228 1.87929 13.8542C1.87929 12.1435 1.44305 10.5697 0.671253 9.16696C0.537027 8.89325 0.369244 8.65376 0.201461 8.41426C0.0672352 8.14056 0.00012207 7.83263 0.00012207 7.4905Z" fill="#E3A127"/>
<path d="M8.05372 11.8014C7.51681 12.5541 6.94635 13.2384 6.27522 13.9227C4.96651 15.257 3.49003 16.3176 1.94642 17.1045C1.77864 17.1729 1.64442 17.2756 1.47663 17.344C1.37596 17.4124 1.30885 17.4809 1.20818 17.5493C0.537049 18.2336 0.537049 19.3626 1.20818 20.0811C1.87931 20.7654 2.98668 20.7654 3.69137 20.0811C3.75848 20.0127 3.82559 19.91 3.8927 19.8416C3.95982 19.6705 4.06049 19.4995 4.1276 19.3284C4.8994 17.7204 5.93965 16.2492 7.24836 14.9148C7.88594 14.2648 8.59062 13.6489 9.32887 13.1357C10.2349 13.5463 11.3087 13.3752 12.047 12.6225C12.4161 12.2462 12.651 11.7672 12.7181 11.254C12.8188 10.5013 12.6174 9.68017 12.047 9.09855C11.4765 8.51691 10.6711 8.27742 9.93289 8.41427C9.42954 8.4827 8.95975 8.7222 8.59062 9.09855C7.81882 9.78282 7.65104 10.8776 8.05372 11.8014ZM1.91287 19.9442C1.94642 19.91 2.01354 19.91 2.04709 19.8758C2.01354 19.91 1.97998 19.9442 1.91287 19.9442Z" fill="#E3A127"/>
</svg>
