<svg width="168" height="24" viewBox="0 0 168 24" fill="none" xmlns="http://www.w3.org/2000/svg">
<path d="M31.2408 5.62654V10.6119H39.1798V13.1866H31.2408V19.4593H28.1874V3.07532H40.1897V5.62654H31.2408Z" fill="#F2F2F2"/>
<path d="M45.4265 8.7863C46.272 7.47559 47.7596 6.82023 49.8892 6.82023V9.6055C49.6386 9.55869 49.4116 9.53528 49.208 9.53528C48.0649 9.53528 47.1724 9.87076 46.5304 10.5417C45.8884 11.1971 45.5674 12.1489 45.5674 13.3972V19.4593H42.6314V6.96066H45.4265V8.7863Z" fill="#F2F2F2"/>
<path d="M64.6378 6.96066V19.4593H61.8427V17.8677C61.373 18.4294 60.7858 18.8663 60.0811 19.1784C59.3765 19.4749 58.617 19.6231 57.8028 19.6231C56.1273 19.6231 54.8041 19.1628 53.8333 18.2422C52.8781 17.306 52.4005 15.925 52.4005 14.0994V6.96066H55.3365V13.7015C55.3365 14.825 55.5871 15.6676 56.0882 16.2293C56.6049 16.7754 57.333 17.0485 58.2725 17.0485C59.3217 17.0485 60.1516 16.7286 60.7623 16.0889C61.3886 15.4335 61.7018 14.4973 61.7018 13.2802V6.96066H64.6378Z" fill="#F2F2F2"/>
<path d="M73.6023 14.0994L71.4179 16.1591V19.4593H68.4819V2.09229H71.4179V12.578L77.5013 6.96066H81.0245L75.7867 12.2035L81.5177 19.4593H77.9476L73.6023 14.0994Z" fill="#F2F2F2"/>
<path d="M90.9539 18.7805C90.6094 19.0614 90.1866 19.272 89.6855 19.4125C89.2001 19.5529 88.6834 19.6231 88.1353 19.6231C86.7573 19.6231 85.6926 19.2642 84.9409 18.5465C84.1893 17.8287 83.8135 16.7832 83.8135 15.4101V9.39485H81.7466V7.05428H83.8135V4.19879H86.7495V7.05428H90.1083V9.39485H86.7495V15.3399C86.7495 15.9484 86.8983 16.4165 87.1958 16.7442C87.4933 17.0563 87.9239 17.2123 88.4876 17.2123C89.1453 17.2123 89.6933 17.0407 90.1318 16.6974L90.9539 18.7805Z" fill="#F2F2F2"/>
<path d="M93.7919 19.5529C93.5257 19.5529 93.2908 19.4593 93.0872 19.272C92.8993 19.0692 92.8054 18.8273 92.8054 18.5465C92.8054 18.2656 92.8993 18.0315 93.0872 17.8443C93.2908 17.657 93.5257 17.5634 93.7919 17.5634C94.0581 17.5634 94.2851 17.657 94.473 17.8443C94.6766 18.0315 94.7784 18.2656 94.7784 18.5465C94.7784 18.8273 94.6766 19.0692 94.473 19.272C94.2851 19.4593 94.0581 19.5529 93.7919 19.5529Z" fill="#F2F2F2"/>
<path d="M110.296 11.3375H111.447V17.4698C110.727 18.1564 109.85 18.6791 108.816 19.038C107.798 19.3969 106.718 19.5763 105.575 19.5763C103.946 19.5763 102.475 19.2174 101.159 18.4996C99.8595 17.7819 98.8339 16.791 98.0823 15.5271C97.3463 14.2632 96.9783 12.8433 96.9783 11.2673C96.9783 9.69132 97.3463 8.27138 98.0823 7.00747C98.8339 5.74357 99.8595 4.75273 101.159 4.03495C102.475 3.31718 103.954 2.95829 105.598 2.95829C106.804 2.95829 107.908 3.15334 108.91 3.54344C109.928 3.91793 110.797 4.47186 111.517 5.20524L110.766 6.00103C110.077 5.31446 109.302 4.82295 108.44 4.52647C107.595 4.2144 106.655 4.05836 105.622 4.05836C104.213 4.05836 102.936 4.37044 101.793 4.99459C100.666 5.61874 99.7812 6.48475 99.1392 7.59261C98.4972 8.68488 98.1762 9.90977 98.1762 11.2673C98.1762 12.6092 98.4972 13.8341 99.1392 14.942C99.7969 16.0343 100.689 16.9003 101.817 17.54C102.944 18.1642 104.213 18.4762 105.622 18.4762C107.501 18.4762 109.059 17.9769 110.296 16.9783V11.3375Z" fill="#F2F2F2"/>
<path d="M117.47 9.90977C117.846 9.02036 118.433 8.34159 119.232 7.87348C120.03 7.38976 121.001 7.14791 122.144 7.14791V8.29478L121.862 8.27138C120.5 8.27138 119.435 8.70048 118.668 9.55869C117.901 10.4013 117.517 11.5794 117.517 13.0929V19.4593H116.343V7.24153H117.47V9.90977Z" fill="#F2F2F2"/>
<path d="M130.057 19.5529C128.898 19.5529 127.849 19.2876 126.91 18.7571C125.986 18.2266 125.258 17.4932 124.725 16.557C124.193 15.6051 123.927 14.5363 123.927 13.3504C123.927 12.1645 124.193 11.1035 124.725 10.1672C125.258 9.21541 125.986 8.47423 126.91 7.9437C127.849 7.41317 128.898 7.14791 130.057 7.14791C131.216 7.14791 132.257 7.41317 133.181 7.9437C134.12 8.47423 134.856 9.21541 135.389 10.1672C135.921 11.1035 136.187 12.1645 136.187 13.3504C136.187 14.5363 135.921 15.6051 135.389 16.557C134.856 17.4932 134.12 18.2266 133.181 18.7571C132.257 19.2876 131.216 19.5529 130.057 19.5529ZM130.057 18.4996C130.996 18.4996 131.834 18.2812 132.57 17.8443C133.322 17.4074 133.909 16.7988 134.332 16.0186C134.77 15.2385 134.989 14.349 134.989 13.3504C134.989 12.3518 134.77 11.4623 134.332 10.6822C133.909 9.90197 133.322 9.29343 132.57 8.85652C131.834 8.41961 130.996 8.20116 130.057 8.20116C129.117 8.20116 128.272 8.41961 127.52 8.85652C126.784 9.29343 126.197 9.90197 125.759 10.6822C125.336 11.4623 125.124 12.3518 125.124 13.3504C125.124 14.349 125.336 15.2385 125.759 16.0186C126.197 16.7988 126.784 17.4074 127.52 17.8443C128.272 18.2812 129.117 18.4996 130.057 18.4996Z" fill="#F2F2F2"/>
<path d="M150.565 7.24153V19.4593H149.437V16.8378C149.03 17.6961 148.427 18.367 147.629 18.8507C146.83 19.3188 145.891 19.5529 144.81 19.5529C143.213 19.5529 141.96 19.1082 141.052 18.2188C140.144 17.3294 139.69 16.0499 139.69 14.3803V7.24153H140.864V14.2866C140.864 15.6598 141.216 16.7052 141.921 17.423C142.626 18.1408 143.62 18.4996 144.904 18.4996C146.282 18.4996 147.37 18.0705 148.169 17.2123C148.983 16.3541 149.39 15.1995 149.39 13.7483V7.24153H150.565Z" fill="#F2F2F2"/>
<path d="M161.697 7.14791C162.84 7.14791 163.873 7.41317 164.797 7.9437C165.721 8.47423 166.441 9.2076 166.958 10.1438C167.49 11.0801 167.757 12.1489 167.757 13.3504C167.757 14.5519 167.49 15.6286 166.958 16.5804C166.441 17.5166 165.721 18.25 164.797 18.7805C163.873 19.2954 162.84 19.5529 161.697 19.5529C160.616 19.5529 159.638 19.3032 158.761 18.8039C157.884 18.289 157.203 17.579 156.717 16.674V24H155.543V7.24153H156.67V10.1204C157.156 9.1842 157.837 8.45862 158.714 7.9437C159.606 7.41317 160.601 7.14791 161.697 7.14791ZM161.626 18.4996C162.566 18.4996 163.411 18.2812 164.163 17.8443C164.915 17.4074 165.502 16.7988 165.925 16.0186C166.363 15.2385 166.582 14.349 166.582 13.3504C166.582 12.3518 166.363 11.4623 165.925 10.6822C165.502 9.90197 164.915 9.29343 164.163 8.85652C163.411 8.41961 162.566 8.20116 161.626 8.20116C160.687 8.20116 159.841 8.41961 159.09 8.85652C158.354 9.29343 157.766 9.90197 157.328 10.6822C156.905 11.4623 156.694 12.3518 156.694 13.3504C156.694 14.349 156.905 15.2385 157.328 16.0186C157.766 16.7988 158.354 17.4074 159.09 17.8443C159.841 18.2812 160.687 18.4996 161.626 18.4996Z" fill="#F2F2F2"/>
<path d="M7.53087 5.33825C6.09642 5.33825 4.913 4.13166 4.913 2.66912C4.913 1.20659 6.09642 0 7.53087 0C7.92534 0 8.31982 0.073127 8.64257 0.255944C8.82188 0.365634 9.00118 0.511887 9.18049 0.621577C10.6508 1.4991 12.3721 2.01098 14.2011 2.01098C15.7072 2.01098 17.1058 1.68191 18.361 1.06034C18.5044 0.987211 18.612 0.950648 18.7554 0.877521C18.9348 0.804394 19.1499 0.767831 19.4009 0.767831C20.4409 0.767831 21.2657 1.60879 21.2657 2.66912C21.2657 3.72946 20.4409 4.57042 19.4009 4.57042C19.2216 4.57042 19.0782 4.53386 18.9348 4.49729C18.7196 4.3876 18.5044 4.27791 18.2534 4.16822C17.0341 3.61977 15.6714 3.2907 14.2369 3.2907C12.4439 3.2907 10.7942 3.76603 9.32393 4.60698C9.03704 4.75324 8.78601 4.93605 8.53498 5.11887C8.21223 5.26512 7.88948 5.33825 7.53087 5.33825Z" fill="white"/>
<path d="M22.0188 14.7716C22.0188 16.2341 20.8354 17.4407 19.4009 17.4407C17.9665 17.4407 16.7831 16.2341 16.7831 14.7716C16.7831 14.3694 16.8548 13.9672 17.0341 13.6381C17.1417 13.4553 17.2851 13.2725 17.3927 13.0897C18.2534 11.5906 18.7554 9.83554 18.7554 7.9708C18.7554 6.43514 18.4327 5.00917 17.823 3.72945C17.7513 3.5832 17.7155 3.47351 17.6437 3.32726C17.572 3.14444 17.5361 2.92506 17.5361 2.66912C17.5361 1.60878 18.361 0.767831 19.4009 0.767831C20.4409 0.767831 21.2657 1.60879 21.2657 2.66912C21.2657 2.85194 21.2299 2.99819 21.194 3.14444C21.0864 3.36382 20.9788 3.5832 20.8713 3.83914C20.3333 5.0823 20.0106 6.47171 20.0106 7.93424C20.0106 9.76241 20.4768 11.4443 21.3016 12.9434C21.445 13.2359 21.6243 13.4919 21.8036 13.7478C21.9471 14.0769 22.0188 14.406 22.0188 14.7716Z" fill="white"/>
<path d="M13.4121 10.1646C13.9859 9.36021 14.5956 8.62894 15.3128 7.89768C16.7114 6.47171 18.2893 5.33824 19.9389 4.49728C20.1182 4.42416 20.2616 4.31447 20.4409 4.24134C20.5485 4.16821 20.6203 4.09509 20.7278 4.02196C21.4451 3.29069 21.4451 2.0841 20.7278 1.31627C20.0106 0.585006 18.8272 0.585006 18.0741 1.31627C18.0024 1.3894 17.9307 1.49909 17.8589 1.57221C17.7872 1.75503 17.6796 1.93785 17.6079 2.12067C16.7831 3.83914 15.6714 5.41137 14.2728 6.83734C13.5914 7.53204 12.8384 8.19018 12.0494 8.73863C11.0812 8.29987 9.93359 8.48269 9.14465 9.28708C8.75017 9.68928 8.49914 10.2012 8.42742 10.7496C8.31984 11.554 8.535 12.4315 9.14465 13.0531C9.75429 13.6747 10.615 13.9306 11.4039 13.7844C11.9418 13.7112 12.4439 13.4553 12.8384 13.0531C13.6273 12.3218 13.8066 11.1518 13.4121 10.1646Z" fill="white"/>
<path d="M14.4521 17.1848C15.8865 17.1848 17.07 18.3914 17.07 19.8539C17.07 21.3165 15.8865 22.5231 14.4521 22.5231C14.0576 22.5231 13.6631 22.4499 13.3404 22.2671C13.1611 22.1574 12.9818 22.0112 12.8025 21.9015C11.3322 21.024 9.61081 20.5121 7.78189 20.5121C6.27571 20.5121 4.87713 20.8412 3.62198 21.4627C3.47854 21.5359 3.37095 21.5724 3.22751 21.6456C3.0482 21.7187 2.83303 21.7552 2.582 21.7552C1.54203 21.7552 0.717219 20.9143 0.717219 19.8539C0.717219 18.7936 1.54203 17.9527 2.582 17.9527C2.76131 17.9527 2.90476 17.9892 3.0482 18.0258C3.26337 18.1355 3.47854 18.2452 3.72956 18.3548C4.94885 18.9033 6.31158 19.2324 7.74603 19.2324C9.53909 19.2324 11.1887 18.757 12.659 17.9161C12.9459 17.7698 13.1969 17.587 13.448 17.4042C13.7707 17.2214 14.1293 17.1848 14.4521 17.1848Z" fill="white"/>
<path d="M0 7.71483C0 6.25229 1.18342 5.0457 2.61787 5.0457C4.05232 5.0457 5.23574 6.25229 5.23574 7.71483C5.23574 8.11702 5.16402 8.51922 4.98472 8.84829C4.87713 9.03111 4.73369 9.21392 4.6261 9.39674C3.76543 10.8958 3.26338 12.6509 3.26338 14.5156C3.26338 16.0513 3.58613 17.4772 4.19577 18.757C4.26749 18.9032 4.30335 19.0129 4.37507 19.1592C4.4468 19.342 4.48266 19.5614 4.48266 19.8173C4.48266 20.8776 3.65785 21.7186 2.61787 21.7186C1.5779 21.7186 0.753087 20.8776 0.753087 19.8173C0.753087 19.6345 0.788948 19.4882 0.824809 19.342C0.932393 19.1226 1.03998 18.9032 1.14756 18.6473C1.68548 17.3676 2.00823 15.9781 2.00823 14.5156C2.00823 12.6874 1.54203 11.0055 0.717225 9.50643C0.57378 9.21392 0.394474 8.95798 0.215168 8.70203C0.0717225 8.40953 0 8.08046 0 7.71483Z" fill="white"/>
<path d="M8.60673 12.3218C8.03295 13.1262 7.42331 13.8575 6.70608 14.5887C5.30749 16.0147 3.72959 17.1482 2.07998 17.9891C1.90067 18.0623 1.75723 18.172 1.57792 18.2451C1.47034 18.3182 1.39861 18.3913 1.29103 18.4645C0.573804 19.1957 0.573804 20.4023 1.29103 21.1702C2.00825 21.9014 3.19168 21.9014 3.94476 21.1702C4.01649 21.097 4.08821 20.9873 4.15993 20.9142C4.23165 20.7314 4.33924 20.5486 4.41096 20.3658C5.23577 18.6473 6.34747 17.0751 7.74606 15.6491C8.42742 14.9544 9.18051 14.2962 9.96945 13.7478C10.9377 14.1866 12.0853 14.0037 12.8742 13.1993C13.2687 12.7971 13.5197 12.2853 13.5914 11.7368C13.699 10.9324 13.4839 10.0549 12.8742 9.43331C12.2646 8.81174 11.4039 8.55579 10.615 8.70205C10.077 8.77517 9.57498 9.03112 9.18051 9.43331C8.3557 10.1646 8.17639 11.3346 8.60673 12.3218ZM2.04412 21.0239C2.07998 20.9873 2.1517 20.9873 2.18756 20.9508C2.1517 20.9873 2.11584 21.0239 2.04412 21.0239Z" fill="white"/>
</svg>
