<svg width="14" height="15" viewBox="0 0 14 15" fill="none" xmlns="http://www.w3.org/2000/svg">
<path d="M6.97727 7.75C8.89134 7.75 10.4773 6.19141 10.4773 4.25C10.4773 2.33594 8.89134 0.75 6.97727 0.75C5.03587 0.75 3.47727 2.33594 3.47727 4.25C3.47727 6.19141 5.03587 7.75 6.97727 7.75ZM9.41087 8.625H8.94602C8.34446 8.92578 7.68821 9.0625 6.97727 9.0625C6.26634 9.0625 5.58274 8.92578 4.98118 8.625H4.51634C2.4929 8.625 0.852273 10.293 0.852273 12.3164V13.4375C0.852273 14.1758 1.42649 14.75 2.16477 14.75H11.7898C12.5007 14.75 13.1023 14.1758 13.1023 13.4375V12.3164C13.1023 10.293 11.4343 8.625 9.41087 8.625Z" fill="#3F2EB3"/>
</svg>
