<svg width="75" height="50" viewBox="0 0 75 50" fill="none" xmlns="http://www.w3.org/2000/svg">
<path d="M71.9301 38.7226L48.8138 25.0626C47.7288 24.4201 46.82 23.5176 46.1701 22.4375L45.0975 23.0813L46.1437 22.3951C44.5486 19.7551 41.8375 17.985 38.7787 17.5863C38.8413 16.2638 39.4687 15.0313 40.4999 14.2013L42.3137 12.75C45.4012 10.2788 45.9013 5.7737 43.4299 2.68624C42.0711 0.988773 40.0149 0 37.8399 0H37.1599C33.2075 0.00380861 30.0037 3.20758 29.9999 7.16004V9.99994H32.5V7.15989C32.5025 4.58732 34.5875 2.5024 37.1599 2.49991H37.8399C40.4137 2.50123 42.4999 4.58864 42.4987 7.1637C42.4974 8.57743 41.8562 9.91498 40.7525 10.7987L38.9362 12.25C37.3088 13.55 36.3313 15.4987 36.2649 17.5813C33.1736 17.975 30.4337 19.7651 28.8299 22.4362C28.18 23.5163 27.2712 24.4187 26.1862 25.0612L3.07003 38.7226C1.17129 39.8514 0.00498048 41.8938 0 44.1025V48.75C0 49.44 0.560011 50 1.25127 50C1.47378 50 1.69131 49.9399 1.88247 49.8288L5.85367 47.4999H69.1463L73.1175 49.8274C73.7125 50.1762 74.4788 49.9774 74.8288 49.3812C74.9399 49.1899 75 48.9726 75 48.75V44.1025C74.9952 41.8938 73.8288 39.8514 71.9301 38.7226ZM10.125 45L37.5001 28.9488L64.8814 45.0002H10.125V45ZM72.5001 46.5689L70 45.1026V45H69.8238L38.1326 26.4225C37.7426 26.1937 37.2576 26.1937 36.8676 26.4225L5.17633 45H5.00011V45.1026L2.50005 46.5689V44.1027C2.50254 42.7777 3.20259 41.5513 4.34254 40.8752L27.4588 27.2151C28.915 26.3502 30.1326 25.1352 31.0001 23.6802C33.1539 20.0901 37.8102 18.9264 41.4001 21.0802C42.4675 21.7202 43.36 22.6139 44 23.6802L44.0263 23.724C44.8901 25.1614 46.0975 26.3614 47.5413 27.2153L70.6576 40.8753C71.7976 41.5516 72.4976 42.7779 72.5001 44.1028V46.5689Z" fill="#3F2EB3"/>
</svg>
