<svg width="50" height="50" viewBox="0 0 50 50" fill="none" xmlns="http://www.w3.org/2000/svg">
<path d="M0.604651 40.8011L6.43795 42.4678C6.54811 42.4993 6.66358 42.5077 6.77714 42.4926C6.89071 42.4774 6.99994 42.439 7.098 42.3798C7.19605 42.3205 7.28084 42.2417 7.34705 42.1482C7.41327 42.0547 7.45949 41.9485 7.48283 41.8364L11.9782 20.2843L12.4999 26.7042V49.1667C12.4999 49.3877 12.5877 49.5996 12.744 49.7559C12.9002 49.9122 13.1122 50 13.3332 50H36.6664C36.8874 50 37.0994 49.9122 37.2556 49.7559C37.4119 49.5996 37.4997 49.3877 37.4997 49.1667V26.7042L38.0214 20.2841L42.5168 41.8361C42.5557 42.0238 42.6582 42.1923 42.8069 42.3132C42.9556 42.4341 43.1414 42.5001 43.333 42.5C43.4104 42.5 43.4873 42.4892 43.5617 42.4678L49.395 40.8011C49.5919 40.745 49.7613 40.6184 49.8708 40.4453C49.9804 40.2723 50.0223 40.0649 49.9887 39.8629L45.2056 11.1825C45.0452 10.2104 44.7034 9.27714 44.1981 8.43135C43.5665 7.38252 42.6994 6.49515 41.6655 5.83954C40.6315 5.18393 39.4591 4.77809 38.2411 4.65417L33.8323 4.2124L31.5476 0.404479C31.4714 0.283431 31.3661 0.183452 31.2413 0.113723C31.1164 0.0439944 30.9761 0.00675205 30.8331 0.00541667V0H19.1665V0.00510414C19.0229 0.00347837 18.8814 0.0394926 18.756 0.109562C18.6307 0.179631 18.5259 0.28131 18.452 0.404479L16.1673 4.2124L11.7603 4.65417C10.0428 4.82296 8.42898 5.55407 7.16951 6.734C5.91005 7.91393 5.07536 9.47667 4.79504 11.1796L0.0113218 39.8629C-0.0223105 40.0649 0.0195869 40.2722 0.129021 40.4452C0.238455 40.6183 0.407766 40.745 0.604651 40.8011ZM1.77725 39.4031L2.06985 37.6492L6.39451 38.8887L6.03347 40.6192L1.77725 39.4031ZM25.8331 27.5V29.1667H14.1665V27.5H25.8331ZM35.8331 27.5V29.1667H30.8331V27.5H35.8331ZM30.8331 30.8333H32.4998V42.5H30.8331V30.8333ZM29.1664 43.3333V45H27.4998V27.5H29.1664V43.3333ZM14.1665 30.8333H18.3332V48.3333H14.1665V30.8333ZM19.9998 48.3333V30.8333H22.4998V48.3333H19.9998ZM35.8331 48.3333H24.1665V30.8333H25.8331V45.8333C25.8331 46.0543 25.9209 46.2663 26.0772 46.4226C26.2335 46.5789 26.4454 46.6667 26.6665 46.6667H29.9998C30.2208 46.6667 30.4327 46.5789 30.589 46.4226C30.7453 46.2663 30.8331 46.0543 30.8331 45.8333V44.1667H33.3331C33.5541 44.1667 33.7661 44.0789 33.9223 43.9226C34.0786 43.7663 34.1664 43.5543 34.1664 43.3333V30.8333H35.8331V48.3333ZM43.9661 40.6189L43.6051 38.8884L47.9298 37.6489L48.2224 39.4028L43.9661 40.6189ZM40.7737 7.24771C41.59 7.76077 42.2734 8.45957 42.7682 9.28708C43.1657 9.95336 43.4346 10.6883 43.5609 11.4537L47.6537 35.9943L43.2636 37.2523L38.4739 14.2965C38.4326 14.1007 38.3223 13.9263 38.1631 13.8052C38.0038 13.6841 37.8064 13.6243 37.6067 13.6367C37.407 13.6491 37.2185 13.733 37.0755 13.8729C36.9326 14.0129 36.8447 14.1996 36.8281 14.399L35.8982 25.8333H24.6357L33.841 5.88844L38.0767 6.3125C39.0377 6.40324 39.9628 6.72402 40.7737 7.24771ZM32.3915 5.05083L22.8001 25.8333H20.4572L30.9373 2.62698L32.3915 5.05083ZM28.4135 4.16667H21.581L20.456 1.66667H29.5429L28.4135 4.16667ZM27.6608 5.83333L24.9916 11.7439L22.3312 5.83333H27.6608ZM19.0607 2.62896L24.076 13.7714L22.6686 16.8878L17.6 5.06344L19.0607 2.62896ZM6.43951 11.451C6.66007 10.1099 7.31732 8.87922 8.30917 7.95003C9.30103 7.02083 10.572 6.44519 11.9246 6.3125L16.1415 5.89L21.7384 18.9479L18.6287 25.8333H14.1014L13.1721 14.399C13.1558 14.1992 13.0681 14.0121 12.9251 13.8718C12.7821 13.7314 12.5933 13.6474 12.3933 13.6349C12.1933 13.6225 11.9955 13.6825 11.8362 13.804C11.6769 13.9255 11.5666 14.1003 11.5257 14.2965L6.73596 37.2524L2.34589 35.9944L6.43951 11.451Z" fill="#3F2EB3"/>
</svg>
