<svg width="32" height="50" viewBox="0 0 32 50" fill="none" xmlns="http://www.w3.org/2000/svg">
<path fill-rule="evenodd" clip-rule="evenodd" d="M1.68421 28.3342V20.0013H3.36842V3.37692C3.20065 2.4478 3.47122 1.49376 4.10362 0.787007C4.65461 0.25643 5.40173 -0.0273206 6.17023 0.00207671C7.92845 0.00207671 10.1896 1.18951 12.0773 3.09943C14.0884 5.13935 15.1764 7.4184 15.1251 9.16836H15.1579V20.0013H16.8421V28.3342H18.5263V50H0V28.3342H1.68421ZM1.68421 48.3334H16.8421V30.0008H1.68421V48.3334ZM3.36842 28.3342H15.1579V21.6678H3.36842V28.3342ZM5.64433 1.74547C5.52138 1.79374 5.40625 1.86291 5.30509 1.95116C4.52056 2.75195 5.32895 5.35519 7.59087 7.64758C9.14515 9.22416 10.9922 10.2433 12.2932 10.2433C12.6069 10.2683 12.9178 10.166 13.1538 9.96C13.942 9.1617 13.1337 6.55597 10.8717 4.2644C9.3162 2.68776 7.47122 1.66867 6.16941 1.66867C5.98889 1.65357 5.80921 1.68063 5.64433 1.74547ZM6.38486 8.81167C5.90173 8.32265 5.45641 7.79838 5.05263 7.24345V20.0013H13.472V11.6991C13.0958 11.8419 12.6957 11.9135 12.2932 11.9099C10.5337 11.9099 8.27015 10.7225 6.38486 8.81167ZM21.8947 50V28.3342H26.1053V16.6681H23.5789V15.0015H26.1053V13.3349H23.5789V11.6683H26.1053V10.0017H23.5789V8.33506H26.1053V6.66846H23.5789V5.00186H26.1053V3.33527H24.4211V1.66867H26.1053V0.00207671H27.7895V1.66867H29.4737V3.33527H27.7895V5.00186H30.3158V6.66846H27.7895V8.33506H30.3158V10.0017H27.7895V11.6683H30.3158V13.3349H27.7895V15.0015H30.3158V16.6681H27.7895V28.3342H32V50H21.8947ZM23.5789 48.3334H30.3158V30.0008H23.5789V48.3334Z" fill="#3F2EB3"/>
</svg>
