<svg width="37" height="50" viewBox="0 0 37 50" fill="none" xmlns="http://www.w3.org/2000/svg">
<path fill-rule="evenodd" clip-rule="evenodd" d="M37 49.1667C37 49.6269 36.6235 50 36.1591 50H32.7955C32.3311 50 31.9545 49.6269 31.9545 49.1667V46.6667H5.04545V49.1667C5.04545 49.6269 4.66894 50 4.20455 50H0.840909C0.37652 50 0 49.6269 0 49.1667V2.5C0 1.11939 1.12956 0 2.52273 0H34.4773C35.8704 0 37 1.11939 37 2.5V49.1667ZM1.68182 45H4.20455H35.3182V40.8333C35.3182 40.3731 34.9417 40 34.4773 40H2.52273C2.05834 40 1.68182 40.3731 1.68182 40.8333V45ZM5.04545 10H15.1364V5H5.04545V10ZM35.3182 11.6667H4.20455H1.68182V15H35.3182V11.6667ZM21.8636 10H31.9545V5H21.8636V10ZM35.3182 16.6667H1.68182V38.4868C1.95117 38.3878 2.23571 38.3361 2.52273 38.3333H34.4773C34.7642 38.3361 35.0489 38.3878 35.3182 38.4868V16.6667ZM33.6364 46.6667V48.3333H35.3182V46.6667H33.6364ZM2.52273 1.66667C2.05834 1.66667 1.68182 2.03979 1.68182 2.5V10H3.36364V4.16667C3.36364 3.70646 3.74015 3.33333 4.20455 3.33333H15.9773C16.4417 3.33333 16.8182 3.70646 16.8182 4.16667V10H20.1818V4.16667C20.1818 3.70646 20.5583 3.33333 21.0227 3.33333H32.7955C33.2598 3.33333 33.6364 3.70646 33.6364 4.16667V10H35.3182V2.5C35.3182 2.03979 34.9417 1.66667 34.4773 1.66667H2.52273ZM1.68182 48.3333H3.36364V46.6667H1.68182V48.3333ZM5.04545 18.3333V20H3.36364V18.3333H5.04545ZM5.04545 30V21.6667H3.36364V30H5.04545Z" fill="#3F2EB3"/>
</svg>
