<svg width="40" height="50" viewBox="0 0 40 50" fill="none" xmlns="http://www.w3.org/2000/svg">
<path fill-rule="evenodd" clip-rule="evenodd" d="M35.0303 14.7816H27.9153V12.3951C27.9153 12.3951 30.5998 12.5346 30.5998 9.80038C30.5998 9.38807 30.5031 8.99822 30.3316 8.65174C31.6146 8.4994 32.6133 7.40262 32.6133 6.07577V2.59472C32.6134 1.16397 31.4525 0 30.0259 0H9.97424C8.54756 0 7.38693 1.16397 7.38693 2.59472V6.07567C7.38693 7.40262 8.38553 8.4994 9.66847 8.65164C9.49708 8.99813 9.40029 9.38807 9.40029 9.80028C9.40029 12.5776 12.0848 12.395 12.0848 12.395V14.7814H4.96983C2.22955 14.7814 0.000195019 17.0172 0.000195019 19.7654V23.351C0.000195019 23.7556 0.327187 24.0834 0.730523 24.0834C1.13386 24.0834 1.46085 23.7556 1.46085 23.351V19.7654C1.46085 17.825 3.03495 16.2462 4.96983 16.2462H35.0305C36.9654 16.2462 38.5395 17.825 38.5395 19.7654V45.0159C38.5395 46.9562 36.9654 48.535 35.0305 48.535H4.96964C3.03476 48.535 1.46065 46.9562 1.46065 45.0159V26.3301C1.46065 25.9257 1.13366 25.5977 0.730328 25.5977C0.326992 25.5977 0 25.9257 0 26.3301V45.016C0 47.7642 2.22935 50 4.96964 50H35.0303C37.7706 50 40 47.7642 40 45.016V19.7654C40 17.0173 37.7707 14.7816 35.0303 14.7816ZM11.9875 10.9302C11.3661 10.9303 10.8608 10.4234 10.8608 9.80038C10.8608 9.17732 11.3661 8.67049 11.9875 8.67049H23.7329C24.1362 8.67049 24.4633 8.34257 24.4633 7.93807C24.4633 7.53358 24.1362 7.20566 23.7329 7.20566H9.97424C9.35297 7.20566 8.84758 6.69881 8.84758 6.07577V2.59472C8.84758 1.97168 9.35297 1.46484 9.97424 1.46484H30.026C30.6473 1.46484 31.1526 1.97168 31.1526 2.59472V6.07567C31.1526 6.69872 30.6473 7.20556 30.026 7.20556H27.1852C26.7819 7.20556 26.4549 7.53348 26.4549 7.93798C26.4549 8.34247 26.7819 8.67039 27.1852 8.67039H28.0126C28.6339 8.67039 29.1394 9.17723 29.1394 9.80028C29.1394 10.4233 28.634 10.9302 28.0126 10.9302H11.9875ZM26.4547 14.7816H13.5453V12.3951H26.4546L26.4547 14.7816ZM31.498 21.1111H9.2216C8.3846 21.1111 7.70369 21.8436 7.70369 22.7438V42.8118C7.70369 43.712 8.38468 44.4444 9.2216 44.4444H31.498C32.3349 44.4444 33.0158 43.712 33.0158 42.8118V22.7438C33.0159 21.8436 32.3349 21.1111 31.498 21.1111ZM31.9335 42.8118C31.9335 43.0701 31.7381 43.2802 31.498 43.2802H28.7931L25.336 40.5869C22.2467 38.1803 18.0956 38.1803 15.0065 40.5869L13.6909 41.6118C13.4489 41.8004 13.3947 42.1643 13.5701 42.4247C13.7454 42.685 14.0837 42.7432 14.3258 42.5548L15.6414 41.5299C18.3509 39.4191 21.9916 39.4191 24.701 41.5299L26.9479 43.2802H9.2216C8.98145 43.2802 8.78611 43.0701 8.78611 42.8118V22.7438C8.78611 22.4854 8.98152 22.2753 9.2216 22.2753H31.498C31.7381 22.2753 31.9335 22.4854 31.9335 22.7438V42.8118ZM14.3069 31.6667C14.3069 28.297 17.0222 25.5556 20.3598 25.5556C23.6974 25.5556 26.4127 28.297 26.4127 31.6667C26.4127 35.0363 23.6973 37.7778 20.3598 37.7778C17.0222 37.7778 14.3069 35.0363 14.3069 31.6667ZM15.4076 31.6667C15.4076 34.4236 17.6291 36.6664 20.3598 36.6664C23.0904 36.6664 25.3119 34.4236 25.3119 31.6667C25.3119 28.9098 23.0904 26.6669 20.3598 26.6669C17.6291 26.6669 15.4076 28.9098 15.4076 31.6667Z" fill="#3F2EB3"/>
</svg>
