<svg width="86" height="50" viewBox="0 0 86 50" fill="none" xmlns="http://www.w3.org/2000/svg">
<path fill-rule="evenodd" clip-rule="evenodd" d="M73.1 23.5293H69.723C75.27 18.9514 76.1486 10.6265 71.6867 4.93531C69.2372 1.81175 65.5406 -0.00292534 61.6333 4.34866e-06H24.3667C17.2474 -0.00585502 11.4724 5.9102 11.4667 13.2148C11.4639 17.2236 13.2326 21.0162 16.277 23.5295H12.9C5.77493 23.5295 0 29.4545 0 36.7647C0 44.075 5.77493 50 12.9 50H73.1C80.2251 50 86 44.075 86 36.7647C86 29.4545 80.2251 23.5293 73.1 23.5293ZM61.6333 2.94105C67.1746 2.94105 71.6665 7.54979 71.6665 13.2351C71.6665 18.9204 67.1746 23.5291 61.6333 23.5291H32.4564C37.9977 18.963 38.8821 10.6527 34.4316 4.96736C33.8467 4.22029 33.1846 3.54095 32.4564 2.94088H61.6333V2.94105ZM14.3333 13.2351C14.3333 7.54979 18.8253 2.94105 24.3666 2.94105C29.9078 2.94105 34.3998 7.54979 34.3998 13.2351C34.3998 18.9204 29.9078 23.5291 24.3666 23.5291C18.8283 23.5234 14.339 18.9175 14.3333 13.2351ZM27.7436 26.4704C26.3404 27.635 25.1908 29.0879 24.3666 30.7351C23.5423 29.0881 22.3929 27.6352 20.9895 26.4704H27.7436ZM12.9 47.0586C7.35871 47.0586 2.86672 42.4499 2.86672 36.7646C2.86672 31.0793 7.35871 26.4704 12.9 26.4704C18.4413 26.4704 22.9333 31.0791 22.9333 36.7644C22.9276 42.4468 18.4384 47.0527 12.9 47.0586ZM20.9897 47.0586C22.3929 45.894 23.5425 44.441 24.3667 42.7938C25.1909 44.4408 26.3404 45.8938 27.7437 47.0586H20.9897ZM35.8333 47.0586C30.292 47.0586 25.8 42.4499 25.8 36.7646C25.8 31.0793 30.292 26.4705 35.8333 26.4705C41.3746 26.4705 45.8666 31.0793 45.8666 36.7646C45.861 42.4468 41.3717 47.0527 35.8333 47.0586ZM73.1 47.0586H43.923C49.4643 42.4924 50.3486 34.1821 45.8981 28.4968C45.3133 27.7498 44.6511 27.0704 43.923 26.4704H73.1C78.6413 26.4704 83.1333 31.0791 83.1333 36.7644C83.1333 42.4497 78.6413 47.0586 73.1 47.0586ZM5.73324 36.7646C5.73324 32.7042 8.94245 29.4116 12.9 29.4116C16.856 29.4161 20.0624 32.7057 20.0667 36.7646C20.0667 40.8249 16.8575 44.1175 12.9 44.1175C8.94245 44.1175 5.73324 40.8249 5.73324 36.7646ZM8.59997 36.7646C8.59997 39.2014 10.5249 41.1763 12.9 41.1763C15.275 41.1763 17.2 39.2014 17.2 36.7646C17.2 34.3278 15.275 32.3528 12.9 32.3528C10.5249 32.3528 8.59997 34.3278 8.59997 36.7646ZM28.6662 36.7646C28.6662 32.7042 31.8754 29.4116 35.8329 29.4116C39.7889 29.4161 42.9953 32.7057 42.9997 36.7646C42.9997 40.8248 39.7905 44.1175 35.8329 44.1175C31.8754 44.1175 28.6662 40.8249 28.6662 36.7646ZM31.5329 36.7646C31.5329 39.2014 33.4579 41.1763 35.8329 41.1763C38.208 41.1763 40.1329 39.2014 40.1329 36.7646C40.1329 34.3278 38.208 32.3528 35.8329 32.3528C33.4579 32.3528 31.5329 34.3278 31.5329 36.7646ZM31.5331 13.2351C31.5331 17.2955 28.3239 20.5881 24.3664 20.5881C20.4104 20.5836 17.204 17.2939 17.1997 13.2351C17.1997 9.17486 20.4089 5.88208 24.3664 5.88208C28.3239 5.88208 31.5331 9.17469 31.5331 13.2351ZM28.6664 13.2351C28.6664 10.7983 26.7415 8.8233 24.3664 8.8233C21.9913 8.8233 20.0664 10.7984 20.0664 13.2351C20.0664 15.6719 21.9913 17.6468 24.3664 17.6468C26.7415 17.6468 28.6664 15.6719 28.6664 13.2351Z" fill="#3F2EB3"/>
</svg>
