<svg width="53" height="50" viewBox="0 0 53 50" fill="none" xmlns="http://www.w3.org/2000/svg">
<path fill-rule="evenodd" clip-rule="evenodd" d="M5.83023 0.178644C5.43991 -0.117236 4.88629 -0.0373233 4.59358 0.357221L1.94361 3.92877C1.6509 4.32331 1.72996 4.88293 2.12027 5.17881C2.2732 5.29477 2.45914 5.35739 2.65027 5.35739H3.53359L1.94361 7.50032C1.65068 7.89464 1.72962 8.45436 2.11972 8.75047C2.50982 9.04657 3.06355 8.96677 3.35648 8.57245C3.3566 8.57223 3.35682 8.572 3.35693 8.57178L6.0069 5.00023C6.29961 4.60569 6.22055 4.04607 5.83023 3.75019C5.67731 3.63423 5.49137 3.57161 5.30024 3.57161H4.41691L6.0069 1.42869C6.29961 1.03425 6.22044 0.474524 5.83023 0.178644ZM21.1998 37.5014H24.733C25.2209 37.5014 25.6164 37.1016 25.6164 36.6085C25.6164 36.1154 25.2209 35.7156 24.733 35.7156H21.1998C20.7119 35.7156 20.3164 36.1154 20.3164 36.6085C20.3164 37.1016 20.7118 37.5014 21.1998 37.5014ZM17.5959 14.2863H39.308C43.5428 14.2811 47.5411 16.2595 50.1348 19.6435C54.7601 25.6784 53.6698 34.3608 47.6996 39.0362V43.7516C47.6996 44.2447 47.3041 44.6444 46.8162 44.6444H44.0956C43.7059 47.3872 41.5743 49.5419 38.8609 49.9358C35.485 50.4259 32.3552 48.0568 31.8704 44.6444H15.8293C15.4396 47.3872 13.3079 49.5419 10.5945 49.9358C7.21858 50.4259 4.08886 48.0568 3.60402 44.6444H0.883389C0.395574 44.6444 6.5737e-05 44.2447 6.5737e-05 43.7516V39.7014C-0.0125217 36.9369 1.78372 34.4967 4.40697 33.7146L9.27584 32.2378L9.81202 31.7556C14.6543 27.4024 20.9098 24.9986 27.3902 25.0009C27.5867 25.0009 27.7799 25.0075 27.9762 25.0142C28.041 25.0163 28.1061 25.0186 28.1719 25.0206C28.203 25.0118 28.2345 25.0053 28.2665 25.0009C28.307 25.0062 28.3472 25.0142 28.3866 25.025C35.0576 25.2586 41.3903 28.0509 46.0981 32.8342L47.4408 34.1914C47.6064 34.3588 47.6996 34.5859 47.6996 34.8227V36.6629C49.9657 34.3975 51.2386 31.3081 51.2333 28.0863C51.2224 21.4399 45.8831 16.0609 39.308 16.0721H17.5959C17.1572 19.1444 14.5543 21.4257 11.4833 21.4294H6.18333C5.69551 21.4294 5.30001 21.0296 5.30001 20.5365V18.7507H6.5737e-05V16.965H5.30001V13.3934H6.5737e-05V11.6076H5.30001V9.82187C5.30001 9.32877 5.69551 8.92898 6.18333 8.92898H11.4833C14.5543 8.93266 17.1572 11.214 17.5959 14.2863ZM7.06665 19.6436H11.4833C13.9225 19.6436 15.8999 17.6448 15.8999 15.1792C15.8999 12.7136 13.9225 10.7148 11.4833 10.7148H7.06665V19.6436ZM12.114 32.144H27.3831V26.7867C21.8425 26.7875 16.4636 28.6747 12.114 32.144ZM39.9652 30.2574C36.6728 28.2844 32.9684 27.1195 29.1498 26.8564V32.144H36.855L39.9652 30.2574ZM4.91399 35.4254C3.04046 35.984 1.75766 37.727 1.76671 39.7014V42.8622H3.58636C3.59232 42.8201 3.60096 42.7788 3.6096 42.7376C3.61502 42.7117 3.62045 42.6858 3.62522 42.6596C3.62793 42.6443 3.6306 42.629 3.63329 42.6137C3.64547 42.5439 3.65772 42.4738 3.67292 42.4051C3.70119 42.2926 3.73122 42.1819 3.76126 42.072C3.76678 42.0522 3.77219 42.0323 3.7776 42.0123C3.79383 41.9526 3.81006 41.8928 3.82927 41.8345C3.85584 41.7441 3.89014 41.6553 3.92432 41.5669C3.93333 41.5436 3.94233 41.5203 3.95117 41.497C3.96075 41.4724 3.96991 41.4475 3.97905 41.4228C3.99601 41.3768 4.01292 41.3309 4.03244 41.2863C4.08809 41.1613 4.14815 41.0408 4.2091 40.9202C4.22076 40.8974 4.23175 40.8741 4.24272 40.8508C4.25668 40.8212 4.27062 40.7915 4.28595 40.7631C4.37782 40.5952 4.47586 40.4309 4.58186 40.272C4.59728 40.2491 4.61388 40.2272 4.63047 40.2052C4.6424 40.1895 4.65432 40.1738 4.66578 40.1577C4.74528 40.0389 4.83361 39.922 4.92194 39.8104C4.95256 39.7729 4.98475 39.7369 5.01693 39.7011C5.03303 39.6831 5.04913 39.6652 5.06504 39.647C5.08378 39.6254 5.10251 39.6037 5.12131 39.5818C5.1805 39.513 5.2403 39.4435 5.30266 39.3791C5.34647 39.3333 5.39254 39.2899 5.43862 39.2465C5.45014 39.2357 5.46165 39.2248 5.47314 39.2139C5.4892 39.1987 5.50514 39.1836 5.52105 39.1684C5.58556 39.1069 5.6496 39.0458 5.72047 38.9871C5.77388 38.9408 5.82927 38.8973 5.88492 38.8534C5.8937 38.8465 5.90248 38.8396 5.91126 38.8326C5.9996 38.7648 6.08793 38.6987 6.17626 38.6353C6.23903 38.5883 6.30256 38.5475 6.36752 38.5056L6.38384 38.4951C6.47394 38.4362 6.56669 38.38 6.66032 38.3255C6.73276 38.2835 6.80695 38.2425 6.88115 38.2032C6.96403 38.1571 7.04887 38.1182 7.13398 38.0793C7.14775 38.0729 7.16152 38.0667 7.1753 38.0603C7.25127 38.0255 7.32723 37.9907 7.40408 37.9594C7.50831 37.9165 7.61431 37.879 7.72031 37.8415C7.74706 37.8326 7.77361 37.8233 7.80012 37.8142C7.85065 37.7966 7.90106 37.779 7.95262 37.7639C8.06569 37.7299 8.18052 37.7023 8.29535 37.6746C8.32129 37.6684 8.34702 37.6621 8.37271 37.6557C8.42229 37.6433 8.47175 37.631 8.52237 37.621C8.65045 37.5951 8.78295 37.5772 8.91545 37.5603C8.93914 37.557 8.96272 37.5534 8.98631 37.5497C9.02779 37.5431 9.06931 37.5366 9.11154 37.5326C9.31029 37.513 9.51257 37.5014 9.71662 37.5014C9.92067 37.5014 10.1229 37.513 10.3076 37.529C10.3498 37.5331 10.3913 37.5395 10.4328 37.5461C10.4564 37.5498 10.48 37.5535 10.5037 37.5567C10.6362 37.5737 10.7678 37.5915 10.8967 37.6174C10.9474 37.6275 10.9968 37.6397 11.0464 37.6521C11.0721 37.6585 11.0979 37.6649 11.1238 37.671C11.2386 37.6987 11.3535 37.7264 11.4665 37.7603C11.5181 37.7755 11.5684 37.7931 11.619 37.8106C11.6455 37.8198 11.672 37.829 11.6988 37.838C11.8048 37.8755 11.9108 37.913 12.0151 37.9558C12.0919 37.9871 12.1679 38.0219 12.2439 38.0567C12.3428 38.1023 12.4417 38.1496 12.538 38.1996C12.6122 38.2389 12.6864 38.2799 12.7588 38.3219C12.8525 38.3764 12.947 38.4326 13.0353 38.4916C13.106 38.5371 13.1749 38.5835 13.2429 38.6317C13.3221 38.6859 13.3948 38.742 13.4695 38.7995C13.4822 38.8093 13.495 38.8191 13.5079 38.8291C13.5166 38.836 13.5254 38.8429 13.5342 38.8498C13.5898 38.8937 13.6452 38.9372 13.6987 38.9835C13.7835 39.0568 13.8648 39.1335 13.946 39.2103C13.9575 39.2213 13.969 39.2321 13.9805 39.2429C14.0266 39.2863 14.0727 39.3298 14.1165 39.3755C14.1985 39.4647 14.2762 39.5539 14.3538 39.6431L14.3541 39.6434C14.37 39.6616 14.386 39.6796 14.4021 39.6974C14.4344 39.7333 14.4665 39.7693 14.4972 39.8068C14.5873 39.9184 14.6712 40.0354 14.7534 40.1541C14.7852 40.1925 14.8152 40.2291 14.8417 40.2684C14.9477 40.4273 15.0493 40.5916 15.1376 40.7595C15.1529 40.788 15.1669 40.8175 15.1808 40.8472C15.1917 40.8705 15.2028 40.8939 15.2145 40.9166C15.2781 41.0372 15.3381 41.1577 15.3911 41.2827C15.4106 41.3274 15.4275 41.3732 15.4445 41.4192C15.4536 41.4439 15.4628 41.4688 15.4724 41.4935C15.4766 41.5045 15.4808 41.5154 15.485 41.5265C15.5232 41.6272 15.5616 41.7279 15.5943 41.831C15.6135 41.8892 15.6297 41.9489 15.646 42.0088C15.6514 42.0286 15.6568 42.0486 15.6623 42.0685C15.6959 42.1783 15.7259 42.289 15.7506 42.4015C15.7692 42.4854 15.7833 42.5667 15.7983 42.656C15.8031 42.6822 15.8085 42.7081 15.8139 42.734C15.8225 42.7752 15.8312 42.8165 15.8372 42.8587H27.3831V33.9298H9.84735L4.91399 35.4254ZM5.30001 43.7516C5.30001 46.2172 7.27744 48.216 9.71662 48.216C12.1546 48.2131 14.1303 46.216 14.1333 43.7516C14.1333 41.286 12.1559 39.2871 9.71662 39.2871C7.27744 39.2871 5.30001 41.286 5.30001 43.7516ZM33.5664 43.7516C33.5664 46.2172 35.5438 48.216 37.983 48.216C40.421 48.2131 42.3966 46.216 42.3996 43.7516C42.3996 41.286 40.4222 39.2871 37.983 39.2871C35.5438 39.2871 33.5664 41.286 33.5664 43.7516ZM44.1036 42.8587H45.9329V35.1923L44.8491 34.0941C43.8486 33.085 42.765 32.1638 41.6099 31.3404L37.5546 33.8021C37.4172 33.8856 37.26 33.9298 37.0997 33.9298H29.1498V42.8622H31.8527C31.8587 42.8201 31.8673 42.7788 31.8759 42.7376C31.8813 42.7117 31.8868 42.6858 31.8916 42.6596C31.8943 42.6443 31.8969 42.6289 31.8997 42.6136C31.9118 42.5438 31.9241 42.4738 31.9393 42.4051C31.9676 42.2926 31.9976 42.1819 32.0276 42.072C32.0332 42.0522 32.0386 42.0322 32.044 42.0123C32.0602 41.9525 32.0764 41.8928 32.0957 41.8345C32.1222 41.7441 32.1565 41.6553 32.1906 41.5669C32.1997 41.5436 32.2087 41.5203 32.2176 41.497C32.2271 41.4724 32.2362 41.4475 32.2454 41.4227C32.2624 41.3768 32.2793 41.3309 32.2988 41.2863C32.3545 41.1613 32.4145 41.0408 32.4755 40.9202C32.4871 40.8974 32.4981 40.8741 32.5091 40.8508C32.5231 40.8211 32.537 40.7915 32.5523 40.7631C32.6442 40.5952 32.7423 40.4309 32.8483 40.272C32.8636 40.2491 32.8803 40.2272 32.8968 40.2052C32.9088 40.1895 32.9207 40.1738 32.9322 40.1577C33.0117 40.0389 33.1 39.922 33.1883 39.8104C33.2189 39.7729 33.251 39.7369 33.2833 39.701C33.2994 39.6831 33.3155 39.6652 33.3314 39.647C33.3501 39.6254 33.3689 39.6037 33.3876 39.5818C33.4468 39.513 33.5067 39.4435 33.569 39.3791C33.6128 39.3333 33.6588 39.2899 33.705 39.2465C33.7164 39.2357 33.7279 39.2248 33.7395 39.2139C33.7555 39.1987 33.7715 39.1836 33.7874 39.1684C33.8519 39.1069 33.916 39.0458 33.9869 38.9871C34.0402 38.9408 34.0956 38.8973 34.1511 38.8534C34.16 38.8465 34.1688 38.8396 34.1777 38.8326C34.266 38.7648 34.3543 38.6987 34.4426 38.6353C34.5054 38.5883 34.5689 38.5475 34.6339 38.5056L34.6502 38.4951C34.7403 38.4362 34.8331 38.38 34.9267 38.3255C34.9991 38.2835 35.0733 38.2425 35.1475 38.2032C35.2304 38.1571 35.3153 38.1182 35.4004 38.0793C35.4141 38.0729 35.4279 38.0667 35.4417 38.0603C35.5177 38.0255 35.5936 37.9907 35.6705 37.9594C35.7747 37.9165 35.8807 37.879 35.9867 37.8415C36.0134 37.8326 36.0399 37.8233 36.0664 37.8142C36.117 37.7966 36.1674 37.779 36.219 37.7639C36.3321 37.7299 36.4469 37.7023 36.5617 37.6746C36.5876 37.6684 36.6134 37.6621 36.639 37.6557C36.6886 37.6433 36.7381 37.631 36.7888 37.621C36.9168 37.5951 37.0493 37.5772 37.1818 37.5603C37.2055 37.557 37.2291 37.5534 37.2526 37.5497C37.2941 37.5431 37.3356 37.5366 37.3779 37.5326C37.5767 37.513 37.779 37.5014 37.983 37.5014C38.1871 37.5014 38.3893 37.513 38.5784 37.529C38.6205 37.5331 38.6621 37.5395 38.7036 37.5461C38.7271 37.5498 38.7507 37.5535 38.7745 37.5567C38.907 37.5737 39.0386 37.5915 39.1675 37.6174C39.2181 37.6275 39.2676 37.6397 39.3172 37.6521C39.3429 37.6585 39.3686 37.6649 39.3946 37.671C39.5094 37.6987 39.6242 37.7264 39.7373 37.7603C39.7889 37.7755 39.8392 37.7931 39.8898 37.8106C39.9163 37.8199 39.9428 37.829 39.9696 37.838C40.0756 37.8755 40.1816 37.913 40.2858 37.9558C40.3627 37.9871 40.4386 38.0219 40.5146 38.0567C40.6135 38.1023 40.7125 38.1496 40.8088 38.1996C40.883 38.2389 40.9572 38.2799 41.0296 38.3219C41.1232 38.3764 41.2177 38.4326 41.3061 38.4916C41.3767 38.5371 41.4456 38.5835 41.5136 38.6317C41.602 38.6951 41.6903 38.7612 41.7786 38.8291C41.7874 38.836 41.7961 38.8429 41.8049 38.8498C41.8606 38.8936 41.916 38.9372 41.9694 38.9835C42.0542 39.0568 42.1355 39.1335 42.2168 39.2103C42.2281 39.2212 42.2397 39.2321 42.2512 39.2429C42.2973 39.2863 42.3434 39.3298 42.3873 39.3755C42.4693 39.4647 42.547 39.554 42.6246 39.6432L42.6249 39.6434C42.6408 39.6616 42.6568 39.6796 42.6729 39.6974C42.7051 39.7333 42.7373 39.7693 42.768 39.8068C42.8581 39.9184 42.942 40.0354 43.0241 40.1541C43.0355 40.1702 43.0474 40.1859 43.0594 40.2017C43.076 40.2237 43.0926 40.2455 43.108 40.2684C43.214 40.4273 43.3156 40.5916 43.404 40.7595C43.4192 40.788 43.4332 40.8176 43.4471 40.8472C43.4582 40.8705 43.4691 40.8939 43.4808 40.9166C43.5444 41.0372 43.6045 41.1577 43.6575 41.2827C43.6769 41.3274 43.6939 41.3732 43.7108 41.4192C43.72 41.444 43.7291 41.4688 43.7387 41.4935L43.7512 41.5264C43.7895 41.627 43.828 41.7279 43.8606 41.831C43.8799 41.8892 43.8961 41.949 43.9123 42.0089C43.9177 42.0287 43.9231 42.0486 43.9287 42.0685C43.9622 42.1783 43.9923 42.289 44.017 42.4015C44.0355 42.4854 44.0497 42.5667 44.0647 42.656C44.0694 42.6822 44.0748 42.7081 44.0803 42.734C44.0889 42.7752 44.0976 42.8165 44.1036 42.8587Z" fill="#3F2EB3"/>
</svg>
