<svg width="50" height="50" viewBox="0 0 50 50" fill="none" xmlns="http://www.w3.org/2000/svg">
<path fill-rule="evenodd" clip-rule="evenodd" d="M50 13.347V15.0154H32.5017V35.8327C33.359 35.763 34.1964 35.537 34.9723 35.1651C37.38 34.0108 40.1802 34.0108 42.5875 35.1651C44.5353 36.1007 46.8022 36.1007 48.75 35.1651L50 34.5598V36.4123L49.4856 36.6636C47.0784 37.818 44.2781 37.818 41.8709 36.6636C39.9215 35.7281 37.6534 35.7281 35.7044 36.6636C33.2967 37.818 30.4965 37.818 28.0892 36.6636C26.1397 35.7281 23.8721 35.7281 21.9226 36.6636C19.515 37.818 16.7147 37.818 14.3075 36.6636C12.3584 35.7271 10.0899 35.7271 8.14086 36.6636C5.73365 37.818 2.93335 37.818 0.525717 36.6636L0 36.4131V34.5598L1.25407 35.1659C3.20231 36.1007 5.46875 36.1007 7.41658 35.1659C7.97607 34.8975 8.56282 34.6898 9.16667 34.5471V15.0154H0V13.347H9.16667V8.34189C9.16667 3.73471 12.8975 0 17.5 0C22.1025 0 25.8333 3.73471 25.8333 8.34189V13.347H27.5V8.34189C27.5 3.73471 31.2308 0 35.8333 0C40.4358 0 44.1667 3.73471 44.1667 8.34189V13.347H50ZM27.5 18.3522V15.0154H14.1667V18.3522H27.5ZM14.1667 8.34189V13.347H20.8333V8.34189C20.8333 6.49919 19.3408 5.00514 17.5 5.00514C15.6592 5.00514 14.1667 6.49919 14.1667 8.34189ZM21.1926 35.1659C23.1617 34.2258 25.4094 34.0502 27.5 34.6738V31.6992H14.1667V34.8082C14.4593 34.9118 14.746 35.031 15.0256 35.1659C16.9751 36.1024 19.2431 36.1024 21.1926 35.1659ZM32.5 8.34189V13.347H39.1667V8.34189C39.1667 6.49919 37.6742 5.00514 35.8333 5.00514C33.9925 5.00514 32.5 6.49919 32.5 8.34189ZM40.8333 13.347H42.5V8.34189C42.5 4.65606 39.5154 1.66838 35.8333 1.66838C32.1512 1.66838 29.1667 4.65606 29.1667 8.34189V19.1863C29.1667 19.647 28.7935 20.0206 28.3333 20.0206H13.3333C12.8731 20.0206 12.5 19.647 12.5 19.1863V8.34189C12.5 5.57783 14.7387 3.33676 17.5 3.33676C20.2612 3.33676 22.5 5.57783 22.5 8.34189V13.347H24.1667V8.34189C24.1667 4.65606 21.1821 1.66838 17.5 1.66838C13.8179 1.66838 10.8333 4.65606 10.8333 8.34189V34.3203C11.3904 34.2958 11.9482 34.3235 12.5 34.4039V30.865C12.5 30.4043 12.8731 30.0308 13.3333 30.0308H28.3333C28.7935 30.0308 29.1667 30.4043 29.1667 30.865V35.3146C29.7009 35.5374 30.2608 35.6934 30.8333 35.7793V8.34189C30.8333 5.57783 33.0721 3.33676 35.8333 3.33676C38.5946 3.33676 40.8333 5.57783 40.8333 8.34189V13.347ZM42.5834 39.336C40.1761 38.1816 37.3755 38.1816 34.9682 39.336C33.0192 40.2729 30.7507 40.2729 28.8017 39.336C26.3945 38.1812 23.5938 38.1812 21.1866 39.336C19.2375 40.2725 16.969 40.2725 15.0199 39.336C12.6127 38.1812 9.81242 38.1812 7.40519 39.336C5.45695 40.2708 3.19051 40.2708 1.24268 39.336L0 38.7308V40.5841L0.525717 40.8346C2.93335 41.9889 5.73365 41.9889 8.14086 40.8346C10.0899 39.8981 12.3584 39.8981 14.3075 40.8346C16.7147 41.9889 19.515 41.9889 21.9226 40.8346C23.8721 39.8989 26.1397 39.8989 28.0892 40.8346C30.4965 41.9889 33.2967 41.9889 35.7044 40.8346C37.6534 39.8989 39.9215 39.8989 41.8709 40.8346C44.2781 41.9889 47.0784 41.9889 49.4856 40.8346L50 40.5833V38.7308L48.75 39.336C46.8009 40.2733 44.5325 40.2733 42.5834 39.336ZM34.9682 43.507C37.3755 42.3526 40.1761 42.3526 42.5834 43.507C44.5325 44.4443 46.8009 44.4443 48.75 43.507L50 42.9017V44.7542L49.4856 45.0054C47.0784 46.1599 44.2781 46.1599 41.8709 45.0054C39.9215 44.0699 37.6534 44.0699 35.7044 45.0054C33.2967 46.1599 30.4965 46.1599 28.0892 45.0054C26.1397 44.0699 23.8721 44.0699 21.9226 45.0054C19.515 46.1599 16.7147 46.1599 14.3075 45.0054C12.3584 44.0691 10.0899 44.0691 8.14086 45.0054C5.73365 46.1599 2.93335 46.1599 0.525717 45.0054L0 44.755V42.9017L1.24349 43.507C3.19132 44.4418 5.45776 44.4418 7.40601 43.507C9.81323 42.3522 12.6135 42.3522 15.0207 43.507C16.9698 44.4434 19.2383 44.4434 21.1873 43.507C23.5946 42.3522 26.3949 42.3522 28.8017 43.507C30.7507 44.443 33.0192 44.443 34.9682 43.507ZM34.9682 47.6324C37.3755 46.4776 40.1761 46.4776 42.5834 47.6324C44.5325 48.5683 46.8009 48.5683 48.75 47.6324L50 47.0257V48.8836L49.4856 49.1337C47.0784 50.2888 44.2781 50.2888 41.8709 49.1337C39.9215 48.1984 37.6534 48.1984 35.7044 49.1337C33.2967 50.2884 30.4965 50.2884 28.0892 49.1337C26.1397 48.1984 23.8721 48.1984 21.9226 49.1337C19.515 50.2884 16.7147 50.2884 14.3075 49.1337C12.358 48.1981 10.0903 48.1981 8.14086 49.1337C5.73365 50.2884 2.93335 50.2884 0.525717 49.1337L0 48.8836V47.0257L1.24349 47.6324C3.19132 48.5667 5.45776 48.5667 7.40601 47.6324C9.81323 46.4776 12.6135 46.4776 15.0207 47.6324C16.9702 48.5676 19.2383 48.5676 21.1873 47.6324C23.5946 46.4776 26.3945 46.4776 28.8017 47.6324C30.7511 48.5676 33.0187 48.5676 34.9682 47.6324ZM38.1665 24.525C39.1073 23.8192 39.4292 22.5525 38.94 21.4821C38.4509 20.412 37.2831 19.8276 36.1345 20.078C34.9857 20.3285 34.1667 21.3463 34.1667 22.5232V25.8599C34.1667 26.176 34.3449 26.4648 34.6273 26.6061C34.9097 26.7474 35.2474 26.7169 35.5001 26.5271L38.1665 24.525ZM37.1668 23.1904L35.8333 24.1915V22.5232C35.8333 22.1308 36.1064 21.7917 36.4893 21.7081C36.8722 21.6246 37.2616 21.8193 37.4243 22.1761C37.5875 22.533 37.4801 22.9553 37.1668 23.1904ZM6.16675 30.6981L3.50032 28.696C2.55957 27.9902 2.23771 26.7233 2.7268 25.653C3.2159 24.5829 4.38371 23.9985 5.53239 24.249C6.68107 24.4995 7.50016 25.5173 7.50016 26.6941V30.0308C7.50016 30.3469 7.32194 30.6357 7.03955 30.777C6.75716 30.9184 6.41943 30.8878 6.16675 30.6981ZM5.83349 26.6941C5.83349 26.2333 5.46036 25.8599 5.00016 25.8599C4.64127 25.8599 4.32307 26.0896 4.20955 26.4302C4.09603 26.771 4.21322 27.1458 4.50008 27.3613L5.83349 28.3625V26.6941ZM36.6666 32.5334C36.7228 32.5338 36.7785 32.5281 36.8334 32.5167L39.7265 31.9379C40.8723 31.6979 41.6866 30.6768 41.6666 29.5054C41.6691 28.3437 40.8462 27.3441 39.7066 27.1246C38.5673 26.905 37.4328 27.5274 37.004 28.6069L35.8923 31.3896C35.7898 31.6466 35.8215 31.9379 35.9765 32.1672C36.1316 32.3961 36.3899 32.5334 36.6666 32.5334ZM38.5526 29.2268C38.6661 28.9408 38.9424 28.7535 39.25 28.7539C39.3306 28.7535 39.4103 28.7669 39.4865 28.793C39.8103 28.9074 40.0195 29.2223 39.9999 29.5653C39.9999 29.9237 39.7469 30.2325 39.3957 30.3022L38.0115 30.5791L38.5526 29.2268ZM13.8 27.9885H28.2C28.6418 27.9885 29 27.6529 29 27.2388V22.7407C29 22.3266 28.6418 21.991 28.2 21.991H13.8C13.3582 21.991 13 22.3266 13 22.7407V27.2388C13 27.6529 13.3582 27.9885 13.8 27.9885ZM14.6 23.4904H27.4V26.4891H14.6V23.4904Z" fill="#3F2EB3"/>
</svg>
