<svg width="50" height="50" viewBox="0 0 50 50" fill="none" xmlns="http://www.w3.org/2000/svg">
<path fill-rule="evenodd" clip-rule="evenodd" d="M10.0003 1.66657C8.61969 1.66657 7.50031 2.78588 7.50031 4.16642V34.998H5.83364V4.16642C5.83649 1.86635 7.7005 0.00284814 10.0003 0H36.6669C36.6803 0 36.6921 0.00521144 36.7048 0.0108382C36.7079 0.0122427 36.7112 0.0136729 36.7145 0.0150544C36.7898 0.0195301 36.8643 0.0345845 36.9355 0.0589971C36.9443 0.0622124 36.9532 0.0650915 36.962 0.0679644C36.9789 0.0734508 36.9957 0.0789228 37.012 0.0866648C37.1007 0.125725 37.182 0.180247 37.252 0.247381H37.2561L43.9228 6.91365L43.9305 6.92546C43.994 6.993 44.046 7.0703 44.0848 7.15453C44.0947 7.17514 44.1023 7.1982 44.11 7.22191C44.1117 7.22693 44.1135 7.23288 44.1152 7.23793C44.1369 7.30385 44.1502 7.3722 44.1555 7.44137C44.1563 7.45048 44.1588 7.45924 44.1612 7.46796C44.1641 7.47836 44.167 7.48873 44.167 7.49956V24.9985H42.5002V8.33285H38.3337C36.953 8.33285 35.8336 7.21353 35.8336 5.83299V1.66657H10.0003ZM37.5003 5.83299C37.5003 6.29317 37.8734 6.66627 38.3337 6.66627H41.3211L37.5003 2.84488V5.83299ZM11.6669 16.6658V14.9991H10.0001V16.6658H11.6669ZM13.3335 14.9991H15.0004V16.6658H13.3335V14.9991ZM35.0002 11.666L35.0001 13.3325H40.0001L40.0002 11.666H35.0002ZM35.8334 14.9991H40.0003V16.6656L35.8334 16.6658V14.9991ZM15.8335 31.6649H10.0001V29.9983L15.8335 29.9982V31.6649ZM34.1667 29.9982C31.8669 30.0011 30.0028 31.8645 30 34.1646H31.6666C31.6666 32.7841 32.786 31.6649 34.1667 31.6649V29.9982ZM10.0001 6.66628H34.1668V8.33285H10.0001V6.66628ZM48.3332 36.6645H49.1666C49.6269 36.6645 50 37.0376 50 37.4977V39.9976C50 40.9469 49.5963 41.8509 48.8891 42.4841L47.7775 41.2411C48.1315 40.9245 48.3337 40.4724 48.3332 39.9976V38.3311H45.8333V36.6645H46.6666V10.8327C46.6646 9.93959 46.189 9.11484 45.4166 8.66606L46.25 7.2245C47.537 7.97111 48.3304 9.34513 48.3332 10.8327V36.6645ZM1.66667 39.9976V38.3311H17.992C18.5229 38.3339 19.032 38.5454 19.4084 38.9202C20.0992 39.6078 21.0335 39.9952 22.0084 39.9976H22.5V38.3311H22.0084C21.477 38.3283 20.9684 38.1166 20.5916 37.7419C19.9011 37.0543 18.9665 36.6669 17.992 36.6645H3.33333V10.8327C3.33536 9.93959 3.81144 9.11484 4.58333 8.66606L3.75 7.2245C2.46297 7.97111 1.66992 9.34513 1.66667 10.8327V36.6645H0.833333C0.373127 36.6645 0 37.0376 0 37.4977V39.9976C0 41.8383 1.49251 43.3307 3.33333 43.3307H24.9999V41.6642H3.33333C2.41292 41.6642 1.66667 40.918 1.66667 39.9976ZM10.0001 3.33311H11.6669V4.99977H10.0001V3.33311ZM15.0004 3.33311H13.3337V4.99977H15.0004V3.33311ZM16.6668 3.33311H18.3335V4.99977H16.6668V3.33311ZM35.0002 21.6654H33.3336C33.3396 19.7421 32.6752 17.8766 31.4544 16.3898L26.1786 21.6654L28.0895 23.5761L26.9111 24.7545L25.0002 22.8437L19.7211 28.1217C20.3957 28.6747 21.1534 29.1178 21.9663 29.4343L21.3613 30.9874C20.0714 30.4853 18.9007 29.7187 17.9247 28.7374L17.9169 28.7267C14.0123 24.8207 14.0131 18.4893 17.9189 14.5845C21.8252 10.6797 28.157 10.681 32.062 14.5866L32.073 14.5935C33.954 16.4651 35.0084 19.0118 35.0002 21.6654ZM30.2745 15.2132C26.9607 12.5049 22.134 12.747 19.1079 15.7735C17.7439 17.1292 16.8951 18.9181 16.708 20.8321H24.6552L30.2745 15.2132ZM18.5472 26.9394L22.9885 22.4987H16.708C16.8667 24.1286 17.5067 25.6744 18.5472 26.9394ZM10.0001 11.666H15.8335V13.3325H10.0001V11.666ZM14.1667 26.6651H10.0001V28.3317H14.1667V26.6651ZM40.8292 25.5674C45.157 28.9566 46.2736 35.0428 43.4309 39.7478L49.2382 45.5572C49.7245 46.0462 49.9983 46.7071 49.9999 47.3963C50.0012 48.4494 49.3672 49.3993 48.3939 49.8022C47.421 50.205 46.3012 49.9812 45.5574 49.2354L39.7501 43.4293C35.0455 46.2729 28.9587 45.1577 25.568 40.8305C22.1777 36.5038 22.5508 30.327 26.4375 26.4397C30.3243 22.5524 36.5014 22.178 40.8292 25.5674ZM31.3818 25.409C27.5728 26.6236 24.9901 30.1667 24.9999 34.1646C24.9935 37.6467 26.9641 40.8305 30.0833 42.3779C33.2027 43.9252 36.9298 43.5676 39.6984 41.4558C39.7324 41.4301 39.7665 41.4044 39.8007 41.3787C39.8772 41.3211 39.9536 41.2634 40.0268 41.2061C40.1867 41.0718 40.3393 40.9286 40.4902 40.7842C40.5961 40.6837 40.6986 40.5795 40.7991 40.4732C40.9383 40.3276 41.0774 40.1812 41.2068 40.0253C41.2877 39.9302 41.3616 39.8292 41.4348 39.7294C41.4452 39.7151 41.4556 39.701 41.466 39.6868C43.8846 36.5034 43.9607 32.1197 41.6544 28.8541C39.3481 25.5885 35.1908 24.1946 31.3818 25.409ZM46.7382 48.0571C46.9132 48.2328 47.1512 48.3313 47.3994 48.3305C47.7771 48.3305 48.1172 48.103 48.2621 47.7539C48.4065 47.4053 48.3268 47.0036 48.0602 46.7363L42.4551 41.1324C42.2591 41.3636 42.056 41.5849 41.8424 41.7993L41.811 41.8326C41.5941 42.0488 41.3687 42.2554 41.1343 42.4531L46.7382 48.0571ZM41.6669 34.1646C41.6669 30.0227 38.3091 26.6651 34.1669 26.6651C30.025 26.6651 26.6669 30.0227 26.6669 34.1646C26.6669 38.3067 30.025 41.6643 34.1669 41.6643C38.3071 41.6598 41.6624 38.3046 41.6669 34.1646ZM34.1669 39.9976C30.9455 39.9976 28.3335 37.3863 28.3335 34.1646C28.3335 30.943 30.9455 28.3316 34.1669 28.3316C37.3887 28.3316 40.0002 30.943 40.0002 34.1646C39.9966 37.3847 37.387 39.994 34.1669 39.9976Z" fill="#3F2EB3"/>
</svg>
