<svg width="50" height="50" viewBox="0 0 50 50" fill="none" xmlns="http://www.w3.org/2000/svg">
<path fill-rule="evenodd" clip-rule="evenodd" d="M24.2122 16.951H0.0719912V0H24.2122V16.951ZM22.7342 1.46437H1.54993V15.4866H22.7342V1.46437ZM36.7155 31.6021V39.6123C37.6233 39.9181 38.2785 40.7703 38.2785 41.7719C38.2785 43.0295 37.246 44.0527 35.9767 44.0527H4.71831C3.44903 44.0527 2.41652 43.0296 2.41652 41.7719C2.41652 40.7703 3.07175 39.9181 3.97953 39.6123V31.6021C3.97953 30.4015 4.96508 29.4247 6.177 29.4247H34.518C35.73 29.4247 36.7155 30.4015 36.7155 31.6021ZM6.177 30.889C5.78009 30.889 5.45708 31.2088 5.45708 31.602V39.491H35.238V31.602C35.238 31.2088 34.915 30.889 34.518 30.889H6.177ZM4.71831 42.5884H35.9767C36.431 42.5884 36.8006 42.2221 36.8006 41.7719C36.8006 41.3218 36.431 40.9555 35.9767 40.9555H4.71831C4.26404 40.9555 3.89446 41.3218 3.89446 41.7719C3.89446 42.2221 4.26404 42.5884 4.71831 42.5884ZM37.5371 32.2323H38.1792C40.1922 32.2323 40.4925 33.4455 40.4929 34.1688V43.9546C40.4929 45.1357 39.6864 46.8377 38.2269 46.8742V50H36.749V46.876H4.63053V50H3.15298V46.8762H2.51546C1.85098 46.8762 1.18304 46.4981 0.683338 45.8389C0.255626 45.2744 0 44.57 0 43.9548V34.1689C0 33.4758 0.322613 32.9118 0.908168 32.581C1.3174 32.3497 1.8583 32.2324 2.51546 32.2324H3.1526V33.6968H2.51546C1.47793 33.6968 1.47793 34.0156 1.47793 34.1688V43.9545C1.47793 44.5673 2.07889 45.4115 2.51546 45.4115H38.1792C38.5618 45.4115 39.015 44.6218 39.015 43.9545V34.1687C39.015 33.8946 39.015 33.6967 38.1792 33.6967H37.5371V32.2323ZM9.45818 33.7946H7.88169V35.259H9.45818V33.7946ZM31.2315 33.7946H32.9062V35.259H31.2315V33.7946ZM21.1824 33.7946H19.6059V35.259H21.1824V33.7946ZM2.41652 2.32296V14.628H21.868V2.32296H2.41652ZM20.3901 13.1637H3.89446V3.78732H20.3901V13.1637ZM25.0787 27.7917V17.0354H39.06V27.7917H25.0787ZM26.5567 26.3273H37.5821V18.4997H26.5567V26.3273ZM27.4229 19.3583V25.4687H36.7151V19.3583H27.4229ZM35.2376 24.0043H28.9008V20.8228H35.2376V24.0043ZM25.8603 9.24978C25.8603 5.85732 28.6455 3.09734 32.0692 3.09734C35.4932 3.09734 38.2785 5.85732 38.2785 9.24978C38.2785 12.6422 35.4928 15.4022 32.0692 15.4022C28.6455 15.4022 25.8603 12.6424 25.8603 9.24978ZM32.808 13.098V13.8806C34.796 13.5703 36.3756 12.0289 36.7262 10.0717H35.7639V8.6073H36.7551C36.4711 6.56553 34.8561 4.93894 32.808 4.61932V5.67842H31.3304V4.61922C29.2823 4.93894 27.6673 6.56543 27.3836 8.6072H28.276V10.0717H27.4121C27.7632 12.0288 29.3424 13.5701 31.3304 13.8805V13.098H32.808ZM31.3304 6.85V8.60725H28.8673V10.0716H32.8084V6.85H31.3304ZM46.1087 28.9131V46.1672L50 46.1671V49.9544H40.7078V46.1671H44.6307V28.9131H46.1087ZM42.1857 48.4901H48.5225V47.6315H42.1857V48.4901ZM42.2707 10.0663V27.0173H44.6307V28.2297H46.1087V27.0174H48.4374V10.0663H42.2707ZM46.9594 23.2509H44.6307V24.7152H46.9594V25.553H43.7487V11.5307H46.9594V23.2509ZM8.88456 7.18364L10.4472 5.63507L11.4924 6.67053L9.92939 8.2191L8.88456 7.18364ZM14.3543 4.8605L8.88418 10.2807L9.929 11.3161L15.3992 5.89595L14.3543 4.8605ZM12.7913 10.2812L14.354 8.73261L15.3992 9.76807L13.8362 11.3166L12.7913 10.2812Z" fill="#3F2EB3"/>
</svg>
