<svg width="50" height="58" viewBox="0 0 50 58" fill="none" xmlns="http://www.w3.org/2000/svg">
<path fill-rule="evenodd" clip-rule="evenodd" d="M49.1668 34.4784C49.6268 34.4784 50 34.9074 50 35.4361C49.9993 38.0421 48.971 40.5073 47.2033 42.1402H49.1668C49.6268 42.1402 50 42.5693 50 43.0979V56.5062C50 57.0348 49.6268 57.4639 49.1668 57.4639H20.6943C19.0124 57.462 17.3542 57.0128 15.8492 56.1508L6.13254 50.5682C4.92417 49.8796 4.16173 48.4603 4.16653 46.9097V46.7019C4.16653 45.5516 4.59068 44.456 5.33326 43.685C2.17008 42.5837 0.00512567 39.2345 0 35.4361C0 34.9074 0.373213 34.4783 0.833246 34.4784H4.16653V15.3237C4.16749 15.0412 4.27737 14.774 4.46574 14.593L15.2992 4.05789C15.3085 4.04929 15.32 4.04639 15.3293 4.03778C15.3498 4.01988 15.3713 4.00299 15.393 3.98725C15.4261 3.96346 15.4603 3.94224 15.4959 3.92384C15.5064 3.91868 15.5167 3.91223 15.5266 3.9058C15.5392 3.89783 15.5516 3.88987 15.5651 3.88453C15.6509 3.85005 15.7416 3.83184 15.8335 3.83091H28.3334V0.957714C28.3334 0.429017 28.7066 0 29.1667 0H34.1668C34.6268 0 35 0.429017 35 0.957808V4.34429L45.5384 14.5949L45.5439 14.6014L45.5519 14.6126C45.5557 14.6184 45.5595 14.6244 45.5644 14.6294L45.5938 14.6656C45.6047 14.6798 45.6153 14.6945 45.6252 14.7099C45.6701 14.7683 45.7076 14.8324 45.7386 14.9014L45.7578 14.9478C45.7645 14.966 45.7709 14.9844 45.7768 15.0029C45.7864 15.0323 45.7944 15.0623 45.8011 15.0925L45.8097 15.1372C45.8171 15.1803 45.8219 15.224 45.8235 15.2682C45.8277 15.2864 45.8309 15.3046 45.8334 15.3237V34.4784H49.1668ZM44.167 16.2814H27.5002V34.4783H44.167V16.2814ZM33.3332 1.91552H29.9999V7.66182H33.3332V1.91552ZM28.3334 8.61963V5.7464H18.1084L26.9751 14.3659H42.7251L35 6.8535V8.61963C35 9.14829 34.6268 9.57733 34.1668 9.57733H29.1667C28.7066 9.57733 28.3334 9.14829 28.3334 8.61963ZM15.8335 6.04333L5.83334 15.7681V34.4784H11.6667V22.0279C11.6667 21.4992 12.0402 21.0702 12.5002 21.0702H19.1668C19.6268 21.0702 20 21.4992 20 22.0279V34.4784H25.8334V15.7681L15.8335 6.04333ZM13.3331 34.4783H18.3333V22.9856H13.3331V34.4783ZM11.2374 44.0556L16.7824 46.9748C16.5476 45.9884 16.6735 44.9339 17.13 44.0556H11.2374ZM6.87833 48.8529L16.595 54.4355C17.8684 55.1664 19.2715 55.5475 20.6943 55.5486H37.5001V43.6669C34.201 41.692 30.2601 41.7438 27.0007 43.8058L26.7878 43.9388C26.6651 44.0155 26.5286 44.0557 26.3892 44.0557H20C19.0791 44.0557 18.3333 44.913 18.3333 45.9712C18.3333 46.9113 18.9218 47.6926 19.6986 47.8555C19.746 47.8343 19.7957 47.818 19.8466 47.8071C19.8962 47.7964 19.9475 47.7909 20 47.7909H26.6666C27.1267 47.7909 27.4999 48.2199 27.4999 48.7486L27.4989 48.7965L27.4999 48.8444C27.4999 49.3731 27.1267 49.8021 26.6666 49.8021H18.3333C18.2804 49.8021 18.2279 49.7962 18.176 49.7846C18.1106 49.7699 18.0469 49.7462 17.9859 49.714L8.50993 44.7261C8.26094 44.5939 7.98901 44.526 7.71414 44.5269C6.67235 44.5307 5.83013 45.5047 5.83334 46.7019V46.9097C5.83078 47.7333 6.23571 48.487 6.87833 48.8529ZM48.3335 55.5484V44.0556H39.1669V55.5484H48.3335ZM26.206 42.123C30.0477 39.6961 34.7034 39.7028 38.5393 42.1402H42.5002C45.3984 42.1364 47.8558 39.6903 48.2742 36.3938H1.72575C2.14413 39.6903 4.60158 42.1364 7.50014 42.1402H20L26.206 42.123ZM42.5002 51.6237H40.8333V51.7175V53.5392V53.633H42.5002V53.5392V51.7175V51.6237ZM31.6667 21.0701H40.0001C40.4602 21.0701 40.8333 21.4992 40.8333 22.0279V27.7742C40.8333 28.3028 40.4602 28.7319 40.0001 28.7319H31.6667C31.2067 28.7319 30.8335 28.3028 30.8335 27.7742V22.0278C30.8335 21.4991 31.2067 21.0701 31.6667 21.0701ZM32.5 26.8165H39.1669V22.9856H32.5V26.8165Z" fill="#3F2EB3"/>
</svg>
