<svg width="58" height="58" viewBox="0 0 58 58" fill="none" xmlns="http://www.w3.org/2000/svg">
<g filter="url(#filter0_d)">
<path fill-rule="evenodd" clip-rule="evenodd" d="M48.0743 10H53.1667C53.6269 10 54 10.3732 54 10.8333V20.8333C54 21.2935 53.6269 21.6667 53.1667 21.6667H51.5V49.1667C51.5 49.6269 51.1269 50 50.6667 50H7.33333C6.87312 50 6.5 49.6269 6.5 49.1667V21.6667H4.83333C4.37313 21.6667 4 21.2935 4 20.8333V10.8333C4 10.3732 4.37313 10 4.83333 10H9.9257C8.2277 8.34434 7.7024 5.82522 8.59717 3.62877C9.49195 1.43273 11.6286 -0.00241285 14 2.85532e-05H20.91C23.1215 -0.00688876 25.145 1.24352 26.1277 3.22513L29 8.97017L31.8723 3.22513C32.855 1.24352 34.8785 -0.00688876 37.09 2.85532e-05H44C46.3715 -0.00241285 48.508 1.43273 49.4028 3.62877C50.2976 5.82522 49.7723 8.34434 48.0743 10ZM48.1667 5.83336C48.1667 3.53233 46.301 1.6667 44 1.6667H41.4076C42.5323 2.76126 43.1667 4.26395 43.1667 5.83336C43.1667 7.40278 42.5323 8.90547 41.4076 10H44C46.301 10 48.1667 8.13439 48.1667 5.83336ZM37.09 1.6667C35.5104 1.66181 34.0651 2.55496 33.3632 3.97017L30.3484 10H37.3333C39.6344 10 41.5 8.13439 41.5 5.83336C41.5 3.53233 39.6344 1.6667 37.3333 1.6667H37.09ZM29 13.0416L26.1668 20H31.8332L29 13.0416ZM20.91 1.6667H20.6667C18.3656 1.6667 16.5 3.53233 16.5 5.83336C16.5 8.13439 18.3656 10 20.6667 10H27.6516L24.6368 3.97017C23.9349 2.55496 22.4896 1.66181 20.91 1.6667ZM14 1.6667C11.6998 1.66954 9.83618 3.53315 9.83333 5.83336C9.83618 8.13357 11.6998 9.99718 14 10H16.5924C15.4677 8.90547 14.8333 7.40278 14.8333 5.83336C14.8333 4.26395 15.4677 2.76126 16.5924 1.6667H14ZM5.66667 11.6667V20H14.2775L17.75 11.6667H5.66667ZM8.16667 48.3333H23.1667V27.3601L20.6077 33.6475C20.4961 33.9214 20.2479 34.1158 19.9554 34.1581C19.6628 34.2008 19.3699 34.0849 19.1851 33.8542L16.1984 30.1208L10.8974 31.6342C10.5894 31.7232 10.2577 31.6272 10.0445 31.3879C9.8313 31.1488 9.77393 30.8085 9.89762 30.5127L13.5833 21.6667H8.16667V48.3333ZM17.151 28.6458L19.5973 31.7042L27.7609 11.6667H19.5558L12.1051 29.5569L16.2718 28.3659C16.3458 28.3444 16.4227 28.3333 16.5 28.3333C16.7531 28.3333 16.9927 28.4481 17.151 28.6458ZM33.1667 48.3333V23.3333H33.1935L32.514 21.6667H25.486L24.8065 23.3333H24.8333V48.3333H33.1667ZM38.4442 11.6667H30.2391L38.4059 31.7042L40.8526 28.6458C41.0626 28.3843 41.4089 28.2735 41.7316 28.3659L45.8982 29.5569L38.4442 11.6667ZM34.8333 48.3333H49.8333V21.6667H44.4167L48.1048 30.5127C48.2285 30.8085 48.1711 31.1488 47.9579 31.3879C47.7447 31.6272 47.4131 31.7232 47.1051 31.6342L41.8044 30.1208L38.8177 33.8542C38.633 34.0849 38.3396 34.2008 38.0471 34.1581C37.7545 34.1158 37.5062 33.9214 37.3952 33.6475L34.8333 27.3601V48.3333ZM43.7225 20H52.3333V11.6667H40.25L43.7225 20Z" fill="#3F2EB3"/>
</g>
<defs>
<filter id="filter0_d" x="0" y="0" width="58" height="58" filterUnits="userSpaceOnUse" color-interpolation-filters="sRGB">
<feFlood flood-opacity="0" result="BackgroundImageFix"/>
<feColorMatrix in="SourceAlpha" type="matrix" values="0 0 0 0 0 0 0 0 0 0 0 0 0 0 0 0 0 0 127 0"/>
<feOffset dy="4"/>
<feGaussianBlur stdDeviation="2"/>
<feColorMatrix type="matrix" values="0 0 0 0 0 0 0 0 0 0 0 0 0 0 0 0 0 0 0.25 0"/>
<feBlend mode="normal" in2="BackgroundImageFix" result="effect1_dropShadow"/>
<feBlend mode="normal" in="SourceGraphic" in2="effect1_dropShadow" result="shape"/>
</filter>
</defs>
</svg>
