<svg width="25" height="50" viewBox="0 0 25 50" fill="none" xmlns="http://www.w3.org/2000/svg">
<path fill-rule="evenodd" clip-rule="evenodd" d="M22.8603 23.2208C21.592 27.0119 21.8088 31.143 23.467 34.7802L24.9252 37.9884C24.9905 38.1323 25.0137 38.2915 24.992 38.4479C24.9704 38.6043 24.9048 38.7512 24.8028 38.8716L15.6362 49.7049C15.5579 49.7976 15.4605 49.8716 15.3506 49.9226C15.2408 49.9735 15.1211 50 15 50H10C9.87893 50 9.75927 49.9738 9.64942 49.9229C9.53954 49.8716 9.4421 49.7976 9.36387 49.7052L0.197222 38.8716C0.0952436 38.7512 0.0295888 38.6043 0.00790188 38.4479C-0.0137851 38.2915 0.00938697 38.1323 0.074721 37.9884L1.53305 34.7802C3.19122 31.1427 3.40799 27.0118 2.13961 23.2208L0.042846 16.9301C0.00479658 16.8161 -0.00811681 16.6952 0.00499158 16.5757C0.0181 16.4563 0.0569198 16.3411 0.118784 16.238C0.828107 15.0556 1.38827 13.79 1.78649 12.4699C2.26002 10.9039 2.50044 9.27668 2.50003 7.64061V3.33332H4.16671V7.64061C4.16701 9.34088 3.93085 11.0329 3.46503 12.6681L6.40503 20.0198C7.5582 22.9193 8.11549 26.0214 8.04363 29.141C7.97177 32.2607 7.27226 35.3338 5.9868 38.1771L4.52085 41.4012L10.3865 48.3332H14.6135L20.6597 41.1884L19.2998 38.346C17.924 35.4604 17.1597 32.3216 17.055 29.1266C16.9503 25.9316 17.5074 22.7494 18.6913 19.78L21.5351 12.669C21.5318 12.6574 21.5285 12.6459 21.5252 12.6343C21.5167 12.6045 21.5082 12.5747 21.5 12.5447C21.0579 10.9475 20.8337 9.29787 20.8333 7.64061V1.66667H19.9426L19.5801 6.74095C19.4523 8.53143 18.6508 10.207 17.3371 11.4302C16.0234 12.6535 14.2951 13.3336 12.5 13.3336C10.705 13.3336 8.97659 12.6535 7.6629 11.4302C6.34921 10.207 5.54774 8.53143 5.41991 6.74095L5.05741 1.66667H2.50003V0H5.83335C6.04409 1.75932e-05 6.24698 0.0798662 6.40119 0.22347C6.5554 0.367073 6.64948 0.563771 6.66451 0.773957L7.08232 6.62207C7.18 7.99226 7.7932 9.27454 8.79848 10.2107C9.80372 11.1468 11.1264 11.6673 12.5 11.6673C13.8737 11.6673 15.1963 11.1468 16.2016 10.2107C17.2068 9.27454 17.82 7.99226 17.9177 6.62207L18.3355 0.773957C18.3506 0.563771 18.4446 0.367073 18.5988 0.22347C18.7531 0.0798662 18.9559 1.75932e-05 19.1667 0H21.6667C21.8877 0 22.0996 0.0877973 22.2559 0.244078C22.4122 0.400357 22.5 0.61232 22.5 0.833332V7.64061C22.5002 9.14823 22.7042 10.6489 23.1063 12.1019C23.1397 12.2238 23.1749 12.3447 23.2118 12.4644C23.6103 13.7864 24.171 15.0539 24.8813 16.238C24.9431 16.3411 24.9819 16.4563 24.995 16.5757C25.0081 16.6952 24.9952 16.8161 24.9572 16.9301L22.8603 23.2208ZM3.72076 22.6938C5.12262 26.8838 4.88305 31.4497 3.05034 35.4698L1.81034 38.1979L3.32991 39.9936L4.4696 37.4872C5.66238 34.8488 6.31143 31.9973 6.37808 29.1025C6.44473 26.2078 5.92759 23.3293 4.85753 20.6388L2.6142 15.0293C2.35461 15.6216 2.06393 16.1998 1.74336 16.7616L3.72076 22.6938ZM20.8029 37.6271L21.8395 39.7936L23.1888 38.1979L21.9493 35.4698C20.1166 31.4497 19.877 26.8839 21.2788 22.6938L23.2563 16.7616C22.9357 16.1998 22.645 15.6216 22.3854 15.0293L20.2383 20.3991C19.1397 23.1545 18.6227 26.1073 18.7199 29.0721C18.817 32.0369 19.5262 34.9494 20.8029 37.6271ZM10.061 15.8537H14.939V17.378H10.061V15.8537Z" fill="#3F2EB3"/>
</svg>
