<svg width="50" height="50" viewBox="0 0 50 50" fill="none" xmlns="http://www.w3.org/2000/svg">
<path fill-rule="evenodd" clip-rule="evenodd" d="M39.9814 19.9924C45.483 20.0107 49.9576 15.566 49.9759 10.0644C49.9784 9.22729 49.876 8.39273 49.6702 7.58139C49.5595 7.13492 49.1072 6.86342 48.6607 6.97421C48.5141 7.01087 48.38 7.08666 48.2734 7.1933L43.0883 12.3751L38.9743 11.0041L37.6025 6.89095L42.7876 1.70504C43.1124 1.37939 43.1124 0.852068 42.7868 0.527249C42.6793 0.419777 42.5444 0.343984 42.3969 0.30733C37.0619 -1.04369 31.6419 2.18559 30.2909 7.52069C30.086 8.33029 29.9836 9.16244 29.986 9.99701C29.9877 10.6525 30.056 11.3064 30.1885 11.9486L11.9469 30.1902C11.3048 30.0578 10.6509 29.9903 9.99537 29.9878C4.4754 29.9878 0 34.4632 0 39.9831C0 45.5031 4.4754 49.9785 9.99537 49.9785C15.5153 49.9785 19.9907 45.5031 19.9907 39.9831C19.989 39.3276 19.9207 38.6737 19.7883 38.0316L24.1554 33.6645L26.0653 35.5744C26.3902 35.8992 26.9183 35.8992 27.2431 35.5744L27.6596 35.1579C28.0253 34.7948 28.615 34.7948 28.9807 35.1579C29.3454 35.5219 29.3464 36.1125 28.9823 36.4774L28.9807 36.479L28.5642 36.8955C28.2394 37.2203 28.2394 37.7485 28.5642 38.0733L38.5004 48.0095C41.1142 50.6466 45.3706 50.6658 48.0077 48.0528C50.6448 45.439 50.6639 41.1827 48.051 38.5455L48.0365 38.5311C48.0272 38.5217 48.0176 38.5121 48.0077 38.5022L38.0714 28.5659C37.7466 28.2411 37.2185 28.2411 36.8937 28.5659L36.4772 28.9824C36.1115 29.3455 35.5218 29.3455 35.1561 28.9824C34.7912 28.6184 34.7904 28.0278 35.1545 27.663L35.1561 27.6613L35.5726 27.2449C35.8974 26.92 35.8974 26.3919 35.5726 26.0671L33.6626 24.1571L38.0297 19.79C38.672 19.9224 39.3259 19.9899 39.9814 19.9924ZM43.254 48.3126C42.6485 48.3118 42.0488 48.2026 41.4823 47.9894L47.9877 41.4841C48.9697 44.0954 47.6487 47.0082 45.0374 47.9894C44.4668 48.2035 43.863 48.3134 43.254 48.3126ZM33.8176 26.6643C32.8956 27.7646 33.0396 29.4047 34.14 30.3268C35.107 31.1372 36.5163 31.1364 37.4826 30.3243L46.83 39.68C46.9315 39.7815 47.0265 39.889 47.1181 39.9981L39.9964 47.1199C39.8873 47.0282 39.7798 46.9333 39.6782 46.8317L30.3234 37.476C31.2454 36.3757 31.1014 34.7356 30.0011 33.8136C29.034 33.0031 27.6247 33.004 26.6584 33.816L25.3257 32.4833L32.4849 25.335L33.8176 26.6643ZM37.181 18.2865L18.2856 37.1786C18.0782 37.3852 17.9949 37.6858 18.0657 37.9699C19.2085 42.4578 16.4964 47.0223 12.0085 48.1651C7.52051 49.3071 2.95596 46.5959 1.81316 42.1079C0.67037 37.62 3.38245 33.0554 7.87037 31.9127C9.22814 31.567 10.6508 31.567 12.0085 31.9127C12.2925 31.9818 12.5923 31.8985 12.7997 31.6927L31.691 12.8006C31.8976 12.5941 31.9808 12.2934 31.9101 12.0094C30.7748 7.57393 33.4502 3.05847 37.8856 1.92405C38.7236 1.70919 39.5906 1.62751 40.4544 1.68083L36.0606 6.07629C35.8374 6.29953 35.7591 6.62941 35.859 6.92844L37.5249 11.9261C37.6081 12.1751 37.8031 12.3701 38.0521 12.4525L43.0498 14.1184C43.3488 14.2183 43.6787 14.1409 43.9019 13.9176L48.2958 9.52383C48.3058 9.68297 48.3108 9.84036 48.3108 9.99692C48.3341 14.574 44.6433 18.3031 40.0662 18.3264C39.3582 18.3297 38.6536 18.2431 37.968 18.0673C37.684 17.9965 37.3833 18.0798 37.1768 18.2864C37.1768 18.2864 37.1773 18.2865 37.1778 18.2865H37.1785C37.1797 18.2865 37.181 18.2865 37.181 18.2865ZM0.109955 4.58286L3.44174 10.4135C3.55419 10.611 3.74243 10.7534 3.96234 10.8083L7.07089 11.5855L17.7326 22.2473L18.9104 21.0695L8.08208 10.2411C7.97544 10.1344 7.84218 10.0586 7.69557 10.022L4.70859 9.27232L1.87163 4.30548L4.30383 1.87327L9.27325 4.71281L10.0229 7.69979C10.0595 7.8464 10.1353 7.98049 10.242 8.08713L21.0703 18.9155L22.2481 17.7377L11.5864 7.07594L10.8092 3.96905C10.7542 3.7483 10.6118 3.56006 10.4144 3.44761L4.58371 0.115748C4.25806 -0.0691756 3.84907 -0.0141959 3.5842 0.249839L0.252338 3.58162C-0.0158429 3.84483 -0.0741395 4.25547 0.109955 4.58286ZM33.5615 15.2386L15.2369 33.5633L16.4149 34.7412L34.7395 16.4165L33.5615 15.2386ZM12.4941 34.9854C12.7864 34.9854 13.0571 35.1387 13.2079 35.3894L15.7068 39.5542C15.865 39.8182 15.865 40.1481 15.7068 40.4121L13.2079 44.5769C13.0571 44.8276 12.7865 44.9809 12.4941 44.9809H7.49643C7.20412 44.9809 6.93337 44.8276 6.78261 44.5769L4.28373 40.4121C4.12551 40.1481 4.12551 39.8182 4.28373 39.5542L6.78261 35.3894C6.93337 35.1386 7.20404 34.9854 7.49643 34.9854H12.4941ZM7.96786 43.3149H12.0226L14.0217 39.9831L12.0226 36.6513H7.96786L5.96878 39.9831L7.96786 43.3149ZM33.5599 34.7418L34.7378 33.5639L43.067 41.8931L41.8891 43.071L33.5599 34.7418Z" fill="#3F2EB3"/>
</svg>
