<svg width="50" height="50" viewBox="0 0 50 50" fill="none" xmlns="http://www.w3.org/2000/svg">
<path fill-rule="evenodd" clip-rule="evenodd" d="M7.5 0H49.1667C49.6269 0 50 0.373128 50 0.833333V29.1667C50 29.6269 49.6269 30 49.1667 30H41.6667V28.3333H48.3333V1.66667H8.33333V20H6.66667V0.833333C6.66667 0.373128 7.03979 0 7.5 0ZM45 25H41.6667V26.6667H45.8333C46.2935 26.6667 46.6667 26.2935 46.6667 25.8333V4.16667C46.6667 3.70646 46.2935 3.33333 45.8333 3.33333H10.8333C10.3731 3.33333 10 3.70646 10 4.16667V20H11.6667V17.9102L21.7017 10.1908L33.7016 18.1909C33.9816 18.3777 34.3466 18.3777 34.6265 18.1909L39.1793 15.1558L45 18.7952V25ZM39.6081 13.4599C39.3306 13.2861 38.9767 13.2915 38.7041 13.4733L34.1667 16.4998L22.1293 8.47494C21.8319 8.27718 21.4421 8.2906 21.1593 8.5083L11.6667 15.8085V5H45V16.8335L39.6081 13.4599ZM30.8333 10C30.8333 8.15918 32.3258 6.66667 34.1667 6.66667C36.0075 6.66667 37.5 8.15918 37.5 10C37.5 11.8408 36.0075 13.3333 34.1667 13.3333C32.3258 13.3333 30.8333 11.8408 30.8333 10ZM32.5 10C32.5 10.9204 33.2463 11.6667 34.1667 11.6667C35.0871 11.6667 35.8333 10.9204 35.8333 10C35.8333 9.07959 35.0871 8.33333 34.1667 8.33333C33.2463 8.33333 32.5 9.07959 32.5 10ZM34.1667 50C37.3869 49.9964 39.9964 47.3869 40 44.1667V27.5C39.9964 24.2798 37.3869 21.6703 34.1667 21.6667H30.4834L28.35 17.9333C27.607 16.6361 26.2272 15.835 24.7327 15.8333H18.6006C17.1061 15.835 15.7264 16.6361 14.9833 17.9333L12.8499 21.6667H5.83333C2.61311 21.6703 0.0036621 24.2798 0 27.5V44.1667C0.0036621 47.3869 2.61311 49.9964 5.83333 50H34.1667ZM1.66667 44.1667V27.5C1.66951 25.1998 3.53312 23.3361 5.83333 23.3333H13.3333C13.4761 23.3335 13.6136 23.2973 13.7349 23.2311C13.8668 23.1591 13.9791 23.0514 14.0568 22.9167L16.4306 18.7634C16.875 17.983 17.703 17.5008 18.6006 17.5H24.7327C25.6282 17.5017 26.4547 17.9822 26.899 18.7602L29.2766 22.9167C29.4258 23.175 29.7018 23.3337 30 23.3333H34.1667C36.4669 23.3361 38.3305 25.1998 38.3333 27.5V44.1667C38.3305 46.4669 36.4669 48.3305 34.1667 48.3333H5.83333C3.53312 48.3305 1.66951 46.4669 1.66667 44.1667ZM31.9698 39.1667C30.5204 43.6328 26.3623 46.6598 21.6667 46.6667C16.1194 46.6691 11.4669 42.4804 10.8878 36.9637C10.3092 31.447 13.9913 26.3839 19.4181 25.2348C24.845 24.0861 30.2632 27.2221 31.9698 32.5H32.5C34.3408 32.5 35.8333 33.9925 35.8333 35.8333C35.8333 37.6742 34.3408 39.1667 32.5 39.1667H31.9698ZM32.5 34.1667H32.3641C32.3706 34.2075 32.3747 34.2475 32.3787 34.2877L32.38 34.3016L32.3865 34.3551C32.4117 34.5333 32.4366 34.7115 32.4524 34.8934C32.4817 35.2092 32.5 35.5225 32.5 35.8333C32.5 36.1442 32.4817 36.4575 32.4524 36.7732C32.4471 36.8329 32.441 36.8923 32.4341 36.9512L32.421 37.0597L32.4011 37.2075L32.3865 37.3116L32.3783 37.3862C32.3743 37.4241 32.3702 37.4617 32.3641 37.5H32.5C33.4204 37.5 34.1667 36.7537 34.1667 35.8333C34.1667 34.9129 33.4204 34.1667 32.5 34.1667ZM30.5343 33.551C29.4905 29.5048 25.8451 26.6748 21.6667 26.6667C16.9039 26.6643 12.9333 30.3104 12.5318 35.0561C12.1301 39.8019 15.4309 44.0642 20.1266 44.8621C24.8218 45.66 29.3457 42.7279 30.5343 38.1156C30.601 37.8543 30.6568 37.5903 30.701 37.3242L30.7279 37.1532L30.7475 37.0182L30.7528 36.9898C30.756 36.9747 30.7593 36.9595 30.7593 36.9442C30.8581 36.2069 30.8581 35.4598 30.7593 34.7225L30.754 34.6941L30.7495 34.6732C30.7483 34.665 30.7475 34.6568 30.7475 34.6484C30.6978 34.2785 30.6267 33.9124 30.5343 33.551ZM21.6667 42.5C25.3487 42.5 28.3333 39.5154 28.3333 35.8333C28.3333 32.1512 25.3487 29.1667 21.6667 29.1667C17.9846 29.1667 15 32.1512 15 35.8333C15.0041 39.5133 17.9867 42.4959 21.6667 42.5ZM21.6667 30.8333C24.4279 30.8333 26.6667 33.0721 26.6667 35.8333C26.6667 38.5946 24.4279 40.8333 21.6667 40.8333C18.9054 40.8333 16.6667 38.5946 16.6667 35.8333C16.6695 33.0729 18.9062 30.8361 21.6667 30.8333ZM5.83333 25C7.21395 25 8.33333 26.1194 8.33333 27.5C8.33333 28.8806 7.21395 30 5.83333 30C4.45272 30 3.33333 28.8806 3.33333 27.5C3.33333 26.1194 4.45272 25 5.83333 25ZM5.83333 26.6667C5.37313 26.6667 5 27.0398 5 27.5C5 27.9602 5.37313 28.3333 5.83333 28.3333C6.29354 28.3333 6.66667 27.9602 6.66667 27.5C6.66667 27.0398 6.29354 26.6667 5.83333 26.6667ZM18.3333 20.8333H25V22.5H18.3333V20.8333ZM36.6667 26.6667H32.5V28.3333H36.6667V26.6667ZM9.16667 31.6667V45H7.5V31.6667H9.16667ZM12.5 25.8333H10.8333V27.5H12.5V25.8333Z" fill="#3F2EB3"/>
</svg>
