<svg width="40" height="50" viewBox="0 0 40 50" fill="none" xmlns="http://www.w3.org/2000/svg">
<path fill-rule="evenodd" clip-rule="evenodd" d="M13.3334 16.3274V11.6624C13.3363 11.3543 13.5103 11.0732 13.7851 10.9335L10.1793 6.34601C10.1713 6.3356 10.1657 6.3244 10.16 6.31314C10.1557 6.30457 10.1514 6.29597 10.146 6.28769C10.1292 6.26749 10.1137 6.24636 10.0993 6.22438C10.0952 6.21652 10.0925 6.20815 10.0899 6.19969C10.0878 6.19291 10.0856 6.18608 10.0827 6.1794C10.0684 6.14691 10.0561 6.11349 10.046 6.07944C10.0334 6.04133 10.0236 6.00238 10.0168 5.96281C10.0117 5.92835 10.0086 5.89357 10.0077 5.85869C10.0061 5.81891 10.0076 5.77913 10.0118 5.73956C10.0157 5.70447 10.0221 5.66959 10.031 5.63543C10.0403 5.59597 10.0526 5.55723 10.0677 5.51964C10.0713 5.51108 10.0738 5.50234 10.0763 5.49367C10.0788 5.48462 10.0813 5.47567 10.0852 5.46716C10.0896 5.4573 10.0958 5.44891 10.1022 5.44025C10.1066 5.43426 10.1111 5.42815 10.1152 5.42135C10.1198 5.41355 10.1234 5.40521 10.127 5.39683C10.1311 5.38731 10.1352 5.37773 10.141 5.36887L13.4743 0.370697C13.4944 0.344665 13.5161 0.319882 13.5393 0.296558C13.5589 0.270317 13.5803 0.245535 13.6034 0.222418C13.6383 0.191388 13.6761 0.163481 13.7159 0.139115C13.7232 0.134407 13.7301 0.129461 13.7369 0.124546C13.7482 0.116419 13.7594 0.108378 13.7718 0.101629C13.812 0.0813243 13.8538 0.0642473 13.8968 0.0508147C13.907 0.0475283 13.917 0.0438529 13.9268 0.0401978C13.942 0.0345881 13.957 0.0290259 13.9726 0.0249908C14.0092 0.0177019 14.0463 0.0130161 14.0834 0.0108294C14.0946 0.00981665 14.1056 0.00784639 14.1168 0.00586093C14.133 0.00294683 14.1495 0 14.1668 0H25.8334C25.8628 0.00166605 25.892 0.00499816 25.9209 0.00999635C25.9568 0.0118707 25.9924 0.0163482 26.0276 0.0233248C26.05 0.028031 26.0691 0.0352297 26.0877 0.0422808C26.0954 0.0452144 26.1031 0.0481224 26.1109 0.0508147C26.1531 0.0637266 26.1941 0.0801789 26.2334 0.0999633C26.2465 0.106682 26.258 0.115325 26.2696 0.123902C26.2767 0.129149 26.2838 0.134372 26.2909 0.139115C26.3302 0.16369 26.3673 0.191492 26.4018 0.222418C26.425 0.246264 26.447 0.271254 26.4676 0.297391C26.49 0.320611 26.5112 0.345081 26.5309 0.370697L29.8643 5.36887C29.8706 5.37851 29.8752 5.38899 29.8797 5.39935C29.883 5.40688 29.8863 5.41433 29.8901 5.42135C29.8945 5.42917 29.8995 5.43606 29.9045 5.4429C29.9101 5.45065 29.9157 5.45832 29.9201 5.46716C29.9247 5.47616 29.9272 5.48565 29.9298 5.49522C29.932 5.50338 29.9342 5.51159 29.9376 5.51964C29.9527 5.55723 29.965 5.59597 29.9743 5.63543C29.9831 5.66959 29.9896 5.70447 29.9934 5.73956C29.9964 5.77924 29.9964 5.81901 29.9934 5.85869C29.9925 5.89357 29.9894 5.92835 29.9843 5.96281C29.9775 6.00238 29.9677 6.04133 29.9551 6.07944C29.945 6.11349 29.9327 6.14691 29.9184 6.1794C29.9155 6.18608 29.9133 6.19291 29.9113 6.1997C29.9087 6.20815 29.9059 6.21652 29.9018 6.22438C29.8874 6.24636 29.8719 6.26749 29.8551 6.28769C29.8498 6.29597 29.8454 6.30457 29.8412 6.31314C29.8355 6.3244 29.8299 6.3356 29.8218 6.34601L26.2159 10.9335C26.4903 11.0736 26.6641 11.3544 26.6668 11.6624V16.3274C30.9791 18.1035 34.4038 21.5269 36.1805 25.8376C39.8624 34.7706 35.603 44.9958 26.6668 48.6763C17.7305 52.3568 7.50172 48.0989 3.81974 39.1661C0.137771 30.2332 4.39724 20.0079 13.3334 16.3274ZM20.0059 48.3214C28.7504 48.3182 35.8367 41.2294 35.8334 32.4881C35.8425 25.6912 31.4995 19.6511 25.0518 17.4936H14.9484C8.50391 19.6624 4.16434 25.7024 4.16683 32.4998C4.17006 41.241 11.2615 48.3247 20.0059 48.3214ZM15.0001 12.4954V15.8275H17.6301L15.0001 12.4954ZM18.2234 4.99817H21.7768L20.0001 2.33248L18.2234 4.99817ZM21.9976 7.47226L22.2284 6.66422H17.7718L19.1351 11.4333L20.0001 14.4605L21.9976 7.47226ZM24.9884 12.4954L22.3701 15.8275H25.0001L24.9884 12.4954ZM23.9626 6.66422L21.9684 13.6417L27.4518 6.66422H23.9626ZM25.9368 2.48909L24.6818 4.99817H27.6101L25.9368 2.48909ZM21.5568 1.66606L23.2301 4.1743L24.4851 1.66606H21.5568ZM16.7701 4.1743L18.4434 1.66606H15.5151L16.7701 4.1743ZM15.3184 4.99817L14.0634 2.48909L12.3901 4.99817H15.3184ZM18.0318 13.6417L16.0376 6.66422H12.5484L18.0318 13.6417ZM0.523274 1.60642L1.14223 0.0594875L5.3088 1.72544L4.68984 3.27237L0.523274 1.60642ZM4.99999 4.99817H0V6.66422H4.99999V4.99817ZM20 45.8165C12.6363 45.8165 6.66666 39.8491 6.66666 32.4881C6.67531 25.1306 12.6398 19.1684 20 19.1596C27.3638 19.1596 33.3333 25.127 33.3333 32.4881C33.3333 39.8491 27.3638 45.8165 20 45.8165ZM20 44.1505C26.4433 44.1505 31.6667 38.9291 31.6667 32.4881C31.6597 26.05 26.4404 20.8326 20 20.8257C13.5567 20.8257 8.33333 26.0471 8.33333 32.4881C8.33333 38.9291 13.5567 44.1505 20 44.1505ZM4.69046 8.39099L0.523274 10.0555L1.14171 11.6026L5.3089 9.93813L4.69046 8.39099ZM35 4.99817H40V6.66422H35V4.99817ZM38.8575 0.0603009L34.6903 1.7248L35.3088 3.27194L39.4759 1.60744L38.8575 0.0603009ZM34.6871 9.9401L35.306 8.39317L39.4726 10.0591L38.8536 11.6061L34.6871 9.9401Z" fill="#3F2EB3"/>
</svg>
