<svg width="68" height="50" viewBox="0 0 68 50" fill="none" xmlns="http://www.w3.org/2000/svg">
<path fill-rule="evenodd" clip-rule="evenodd" d="M67.3651 2.85263L65.0293 1.04129C64.2475 0.43503 63.3419 0.07994 62.4042 0.012005C61.4663 -0.0559301 60.5299 0.165704 59.6894 0.654446L56.6386 2.42911L54.7325 0.950829C53.933 0.330839 52.9936 0 52.0327 0C51.0718 0 50.1324 0.330839 49.3329 0.950829L47.5081 2.36595L45.6833 0.951487C44.8839 0.331498 43.9444 0.000658788 42.9835 0.000658788C42.0226 0.000658788 41.0832 0.331498 40.2838 0.951487L38.459 2.36595L36.6341 0.951487C35.8347 0.331498 34.8953 0.000658788 33.9344 0.000658788C32.9735 0.000658788 32.034 0.331498 31.2346 0.951487L29.4098 2.36595L27.585 0.951487C26.7855 0.331498 25.8461 0.000658788 24.8852 0.000658788C23.9243 0.000658788 22.9849 0.331498 22.1854 0.951487L20.3606 2.36595L18.5358 0.951487C17.7364 0.331498 16.7969 0.000658788 15.836 0.000658788C14.8751 0.000658788 13.9358 0.331498 13.1363 0.951487L11.2302 2.42977L8.17931 0.655105C7.33891 0.166362 6.4024 -0.0552725 5.46463 0.0126625C4.52689 0.0805975 3.62124 0.435688 2.83946 1.04195L0.709937 2.69276C0.491356 2.86178 0.312135 3.09109 0.188261 3.36025C0.0643864 3.62942 -0.000289859 3.93007 9.76543e-07 4.23536V9.21053C9.76543e-07 9.55951 0.119175 9.89418 0.331305 10.1409C0.543436 10.3877 0.831147 10.5263 1.13115 10.5263H65.6064V13.1579H44.1147V15.7895H65.6064V18.4211C60.931 18.4248 56.3426 19.8929 52.3234 22.6712C48.304 25.4495 45.0019 29.4355 42.7638 34.2105H28.2786V36.8421H41.6655C40.442 40.1783 39.7477 43.7446 39.6163 47.3684H28.2525C27.6581 31.2895 16.2287 18.4211 2.26229 18.4211V13.1579H9.76543e-07V19.7368C1.78206e-05 19.9146 0.0309843 20.0905 0.0910322 20.2538C0.15108 20.4173 0.238964 20.5648 0.349384 20.6877L26.3657 49.635C26.5763 49.8692 26.8562 50 27.1475 50H40.7212C41.0125 50 41.2925 49.8692 41.503 49.635L67.5194 20.6877C67.6298 20.5648 67.7176 20.4173 67.7777 20.2538C67.8378 20.0905 67.8687 19.9146 67.8687 19.7368V3.94737C67.8687 3.73077 67.8228 3.51753 67.7348 3.32656C67.647 3.13559 67.5201 2.9728 67.3651 2.85263ZM2.26229 7.89474V4.65164L4.09432 3.23092C4.54421 2.88199 5.0654 2.6776 5.60508 2.63849C6.14475 2.59938 6.68373 2.72694 7.16736 3.00822L10.8056 5.12418C10.9839 5.22791 11.1827 5.27495 11.3818 5.26051C11.5808 5.24607 11.773 5.17066 11.939 5.04194L14.3911 3.1403C14.819 2.80849 15.3218 2.63143 15.836 2.63143C16.3503 2.63143 16.8531 2.80849 17.2809 3.1403L19.7331 5.04194C19.9189 5.18607 20.1372 5.26298 20.3606 5.26298C20.584 5.26298 20.8023 5.18607 20.9881 5.04194L23.4403 3.1403C23.8682 2.80849 24.371 2.63143 24.8852 2.63143C25.3995 2.63143 25.9022 2.80849 26.3301 3.1403L28.7823 5.04194C28.9681 5.18607 29.1864 5.26298 29.4098 5.26298C29.6332 5.26298 29.8515 5.18607 30.0373 5.04194L32.4895 3.1403C32.9173 2.80849 33.4201 2.63143 33.9344 2.63143C34.4486 2.63143 34.9514 2.80849 35.3793 3.1403L37.8314 5.04194C38.0172 5.18607 38.2355 5.26298 38.459 5.26298C38.6824 5.26298 38.9007 5.18607 39.0865 5.04194L41.5386 3.1403C41.9665 2.80849 42.4693 2.63143 42.9835 2.63143C43.4978 2.63143 44.0006 2.80849 44.4284 3.1403L46.8806 5.04194C47.0664 5.18607 47.2847 5.26298 47.5081 5.26298C47.7315 5.26298 47.9498 5.18607 48.1356 5.04194L50.5878 3.1403C51.0157 2.80849 51.5185 2.63143 52.0327 2.63143C52.5469 2.63143 53.0497 2.80849 53.4776 3.1403L55.9298 5.04194C56.0956 5.17066 56.2879 5.24607 56.487 5.26051C56.6859 5.27495 56.8847 5.22791 57.0632 5.12418L60.7014 3.00822C61.1849 2.72694 61.7239 2.59938 62.2636 2.63849C62.8033 2.6776 63.3245 2.88199 63.7744 3.23092L65.6064 4.65148V7.89474H2.26229ZM63.8508 21.1283L42.019 45.4194C43.3442 32.3826 52.5018 22.0974 63.8508 21.1283ZM25.8498 45.4194L4.01797 21.1283C15.3669 22.0974 24.5245 32.3826 25.8498 45.4194ZM41.8524 17.1053C41.8524 16.2768 41.6283 15.4693 41.2119 14.7972C40.7955 14.1251 40.2077 13.6224 39.532 13.3605C38.8564 13.0985 38.127 13.0904 37.4471 13.3375C36.7673 13.5845 36.1715 14.0741 35.7442 14.7368L33.9344 17.5439L32.1245 14.7368C31.7774 14.1986 31.3179 13.7724 30.7894 13.4988C30.261 13.2253 29.6811 13.1134 29.1051 13.1738C28.5289 13.2343 27.9756 13.465 27.4979 13.8441C27.02 14.2232 26.6332 14.7381 26.3746 15.34C26.1159 15.9418 25.9937 16.6105 26.0197 17.2827C26.0458 17.9549 26.2191 18.6082 26.5231 19.1806C26.8272 19.753 27.2521 20.2253 27.7573 20.553C28.2625 20.8806 28.8313 21.0526 29.4098 21.0526H31.2035L29.7411 22.7538L31.3408 24.6146L33.9344 21.5977L36.5279 24.6146L38.1277 22.7538L36.6652 21.0526H38.459C39.3586 21.0515 40.2211 20.6352 40.8573 19.8951C41.4935 19.1551 41.8514 18.1518 41.8524 17.1053ZM37.554 16.3158C37.6697 16.1364 37.823 15.9943 37.9991 15.9031C38.1752 15.8119 38.3685 15.7747 38.5605 15.7948C38.7526 15.8149 38.937 15.8918 39.0962 16.0182C39.2556 16.1446 39.3845 16.3162 39.4706 16.5168C39.5569 16.7174 39.5976 16.9403 39.589 17.1645C39.5803 17.3885 39.5225 17.6063 39.4211 17.797C39.3198 17.9878 39.1782 18.1452 39.0098 18.2544C38.8414 18.3637 38.6518 18.4211 38.459 18.4211H36.1967L37.554 16.3158ZM28.2786 17.1053C28.2786 16.8291 28.3533 16.5599 28.4921 16.3359C28.631 16.1119 28.8268 15.9443 29.0521 15.857C29.2773 15.7697 29.5205 15.767 29.747 15.8493C29.9737 15.9317 30.1723 16.0949 30.3147 16.3158L31.6721 18.4211H29.4098C29.1099 18.4207 28.8224 18.2819 28.6103 18.0352C28.3983 17.7885 28.2789 17.4541 28.2786 17.1053ZM4.52458 13.1579H23.7541V15.7895H4.52458V13.1579Z" fill="#3F2EB3"/>
</svg>
