<svg width="12" height="19" viewBox="0 0 12 19" fill="none" xmlns="http://www.w3.org/2000/svg">
<path d="M10.3012 0.25H2.42624C1.47702 0.25 0.738743 1.02344 0.738743 1.9375V16.5625C0.738743 17.5117 1.47702 18.25 2.42624 18.25H10.3012C11.2153 18.25 11.9887 17.5117 11.9887 16.5625V1.9375C11.9887 1.02344 11.2153 0.25 10.3012 0.25ZM6.36374 17.125C5.73093 17.125 5.23874 16.6328 5.23874 16C5.23874 15.4023 5.73093 14.875 6.36374 14.875C6.9614 14.875 7.48874 15.4023 7.48874 16C7.48874 16.6328 6.9614 17.125 6.36374 17.125ZM10.3012 13.3281C10.3012 13.5742 10.0903 13.75 9.87937 13.75H2.84812C2.60202 13.75 2.42624 13.5742 2.42624 13.3281V2.35938C2.42624 2.14844 2.60202 1.9375 2.84812 1.9375H9.87937C10.0903 1.9375 10.3012 2.14844 10.3012 2.35938V13.3281Z" fill="#828282"/>
</svg>
