<svg width="33" height="37" viewBox="0 0 33 37" fill="none" xmlns="http://www.w3.org/2000/svg">
<path d="M25 12.5V4.21239L19.7119 1H1V15.3097M1 29.3274V34H25V29.3274" stroke="#3F2EB3" stroke-width="2" stroke-linejoin="bevel"/>
<path d="M3.24451 25.126C2.79651 25.126 2.41851 24.9767 2.11051 24.678C1.80251 24.3793 1.64851 24.0013 1.64851 23.544C1.64851 23.0773 1.79784 22.6993 2.09651 22.41C2.40451 22.1207 2.78717 21.976 3.24451 21.976C3.71117 21.976 4.09384 22.1207 4.39251 22.41C4.69117 22.6993 4.84051 23.0773 4.84051 23.544C4.84051 24.0013 4.68651 24.3793 4.37851 24.678C4.07984 24.9767 3.70184 25.126 3.24451 25.126ZM14.1123 14.612V25H11.5783V24.244C11.0837 24.832 10.3417 25.126 9.35234 25.126C8.66167 25.126 8.03167 24.9673 7.46234 24.65C6.893 24.3233 6.44034 23.8613 6.10434 23.264C5.77767 22.6667 5.61434 21.976 5.61434 21.192C5.61434 20.408 5.77767 19.722 6.10434 19.134C6.44034 18.5367 6.893 18.0793 7.46234 17.762C8.03167 17.4447 8.66167 17.286 9.35234 17.286C10.2577 17.286 10.9577 17.5473 11.4523 18.07V14.612H14.1123ZM9.91234 23.012C10.3697 23.012 10.7477 22.8533 11.0463 22.536C11.345 22.2093 11.4943 21.7613 11.4943 21.192C11.4943 20.632 11.345 20.1933 11.0463 19.876C10.757 19.5587 10.379 19.4 9.91234 19.4C9.44567 19.4 9.063 19.5587 8.76434 19.876C8.46567 20.1933 8.31634 20.632 8.31634 21.192C8.31634 21.7613 8.46567 22.2093 8.76434 22.536C9.063 22.8533 9.44567 23.012 9.91234 23.012ZM19.6317 25.126C18.8197 25.126 18.0871 24.958 17.4337 24.622C16.7804 24.286 16.2671 23.8193 15.8937 23.222C15.5297 22.6247 15.3477 21.948 15.3477 21.192C15.3477 20.4453 15.5297 19.7733 15.8937 19.176C16.2671 18.5787 16.7757 18.1167 17.4197 17.79C18.0731 17.454 18.8104 17.286 19.6317 17.286C20.4531 17.286 21.1904 17.454 21.8437 17.79C22.4971 18.1167 23.0057 18.5787 23.3697 19.176C23.7337 19.764 23.9157 20.436 23.9157 21.192C23.9157 21.948 23.7337 22.6247 23.3697 23.222C23.0057 23.8193 22.4971 24.286 21.8437 24.622C21.1904 24.958 20.4531 25.126 19.6317 25.126ZM19.6317 23.012C20.0984 23.012 20.4811 22.8533 20.7797 22.536C21.0784 22.2093 21.2277 21.7613 21.2277 21.192C21.2277 20.632 21.0784 20.1933 20.7797 19.876C20.4811 19.5587 20.0984 19.4 19.6317 19.4C19.1651 19.4 18.7824 19.5587 18.4837 19.876C18.1851 20.1933 18.0357 20.632 18.0357 21.192C18.0357 21.7613 18.1851 22.2093 18.4837 22.536C18.7824 22.8533 19.1651 23.012 19.6317 23.012ZM29.0259 25.126C28.1859 25.126 27.4346 24.958 26.7719 24.622C26.1093 24.286 25.5913 23.8193 25.2179 23.222C24.8539 22.6247 24.6719 21.948 24.6719 21.192C24.6719 20.436 24.8539 19.764 25.2179 19.176C25.5913 18.5787 26.1093 18.1167 26.7719 17.79C27.4346 17.454 28.1859 17.286 29.0259 17.286C29.8846 17.286 30.6266 17.4727 31.2519 17.846C31.8773 18.21 32.3206 18.7187 32.5819 19.372L30.5239 20.422C30.1786 19.7407 29.6746 19.4 29.0119 19.4C28.5359 19.4 28.1393 19.5587 27.8219 19.876C27.5139 20.1933 27.3599 20.632 27.3599 21.192C27.3599 21.7613 27.5139 22.2093 27.8219 22.536C28.1393 22.8533 28.5359 23.012 29.0119 23.012C29.6746 23.012 30.1786 22.6713 30.5239 21.99L32.5819 23.04C32.3206 23.6933 31.8773 24.2067 31.2519 24.58C30.6266 24.944 29.8846 25.126 29.0259 25.126Z" fill="#3F2EB3"/>
</svg>
